<?xml version="1.0" encoding="UTF-8"?>
<svg xmlns="http://www.w3.org/2000/svg" xmlns:xlink="http://www.w3.org/1999/xlink" width="708" height="437" viewBox="0 0 708 437">
<defs>
<g>
<g id="glyph-0-0-b09ba276">
<path d="M 7.21875 -2.5 C 7.21875 -2.609375 7.125 -2.703125 7.015625 -2.703125 L 0.765625 -2.703125 C 0.65625 -2.703125 0.5625 -2.609375 0.5625 -2.5 C 0.5625 -2.390625 0.65625 -2.296875 0.765625 -2.296875 L 7.015625 -2.296875 C 7.125 -2.296875 7.21875 -2.390625 7.21875 -2.5 Z M 7.21875 -2.5 "/>
</g>
<g id="glyph-0-1-b09ba276">
<path d="M 4.1875 0 L 4.1875 -0.3125 L 3.875 -0.3125 C 2.96875 -0.3125 2.9375 -0.421875 2.9375 -0.796875 L 2.9375 -6.40625 C 2.9375 -6.640625 2.9375 -6.65625 2.703125 -6.65625 C 2.09375 -6.015625 1.203125 -6.015625 0.890625 -6.015625 L 0.890625 -5.703125 C 1.09375 -5.703125 1.6875 -5.703125 2.203125 -5.96875 L 2.203125 -0.796875 C 2.203125 -0.4375 2.171875 -0.3125 1.265625 -0.3125 L 0.953125 -0.3125 L 0.953125 0 C 1.296875 -0.03125 2.171875 -0.03125 2.5625 -0.03125 C 2.96875 -0.03125 3.84375 -0.03125 4.1875 0 Z M 4.1875 0 "/>
</g>
<g id="glyph-0-2-b09ba276">
<path d="M 1.921875 -0.53125 C 1.921875 -0.8125 1.6875 -1.0625 1.390625 -1.0625 C 1.09375 -1.0625 0.859375 -0.8125 0.859375 -0.53125 C 0.859375 -0.234375 1.09375 0 1.390625 0 C 1.6875 0 1.921875 -0.234375 1.921875 -0.53125 Z M 1.921875 -0.53125 "/>
</g>
<g id="glyph-0-3-b09ba276">
<path d="M 4.59375 -3.203125 C 4.59375 -4 4.546875 -4.796875 4.203125 -5.546875 C 3.734375 -6.5 2.921875 -6.65625 2.5 -6.65625 C 1.90625 -6.65625 1.171875 -6.40625 0.765625 -5.46875 C 0.4375 -4.78125 0.390625 -4 0.390625 -3.203125 C 0.390625 -2.453125 0.4375 -1.546875 0.84375 -0.796875 C 1.265625 0.015625 2 0.21875 2.484375 0.21875 C 3.03125 0.21875 3.796875 0.015625 4.234375 -0.9375 C 4.546875 -1.625 4.59375 -2.40625 4.59375 -3.203125 Z M 3.765625 -3.3125 C 3.765625 -2.5625 3.765625 -1.890625 3.65625 -1.25 C 3.515625 -0.296875 2.9375 0 2.484375 0 C 2.09375 0 1.515625 -0.25 1.328125 -1.203125 C 1.21875 -1.8125 1.21875 -2.734375 1.21875 -3.3125 C 1.21875 -3.953125 1.21875 -4.625 1.296875 -5.15625 C 1.484375 -6.34375 2.234375 -6.4375 2.484375 -6.4375 C 2.8125 -6.4375 3.484375 -6.265625 3.671875 -5.265625 C 3.765625 -4.703125 3.765625 -3.953125 3.765625 -3.3125 Z M 3.765625 -3.3125 "/>
</g>
<g id="glyph-0-4-b09ba276">
<path d="M 4.484375 -2.015625 C 4.484375 -3.203125 3.671875 -4.203125 2.59375 -4.203125 C 2.109375 -4.203125 1.6875 -4.046875 1.3125 -3.6875 L 1.3125 -5.640625 C 1.515625 -5.578125 1.84375 -5.515625 2.171875 -5.515625 C 3.40625 -5.515625 4.09375 -6.421875 4.09375 -6.546875 C 4.09375 -6.609375 4.0625 -6.65625 4 -6.65625 C 4 -6.65625 3.96875 -6.65625 3.921875 -6.625 C 3.71875 -6.546875 3.234375 -6.34375 2.5625 -6.34375 C 2.15625 -6.34375 1.703125 -6.40625 1.234375 -6.625 C 1.15625 -6.65625 1.109375 -6.65625 1.109375 -6.65625 C 1.015625 -6.65625 1.015625 -6.5625 1.015625 -6.40625 L 1.015625 -3.453125 C 1.015625 -3.265625 1.015625 -3.1875 1.15625 -3.1875 C 1.21875 -3.1875 1.234375 -3.21875 1.28125 -3.28125 C 1.390625 -3.4375 1.765625 -3.984375 2.5625 -3.984375 C 3.09375 -3.984375 3.34375 -3.515625 3.421875 -3.34375 C 3.578125 -2.96875 3.59375 -2.578125 3.59375 -2.078125 C 3.59375 -1.734375 3.59375 -1.125 3.359375 -0.703125 C 3.125 -0.3125 2.75 -0.0625 2.296875 -0.0625 C 1.5625 -0.0625 0.984375 -0.59375 0.8125 -1.1875 C 0.84375 -1.171875 0.875 -1.15625 0.984375 -1.15625 C 1.3125 -1.15625 1.484375 -1.40625 1.484375 -1.65625 C 1.484375 -1.890625 1.3125 -2.140625 0.984375 -2.140625 C 0.84375 -2.140625 0.5 -2.0625 0.5 -1.609375 C 0.5 -0.75 1.1875 0.21875 2.3125 0.21875 C 3.46875 0.21875 4.484375 -0.734375 4.484375 -2.015625 Z M 4.484375 -2.015625 "/>
</g>
<g id="glyph-0-5-b09ba276">
<path d="M 6.65625 -2.328125 C 6.65625 -2.4375 6.65625 -2.5 6.515625 -2.5 C 6.40625 -2.5 6.40625 -2.4375 6.40625 -2.34375 C 6.3125 -0.90625 5.25 -0.09375 4.15625 -0.09375 C 3.546875 -0.09375 1.59375 -0.4375 1.59375 -3.40625 C 1.59375 -6.40625 3.546875 -6.734375 4.15625 -6.734375 C 5.234375 -6.734375 6.125 -5.828125 6.328125 -4.375 C 6.34375 -4.234375 6.34375 -4.203125 6.484375 -4.203125 C 6.65625 -4.203125 6.65625 -4.234375 6.65625 -4.4375 L 6.65625 -6.8125 C 6.65625 -6.984375 6.65625 -7.046875 6.546875 -7.046875 C 6.5 -7.046875 6.453125 -7.046875 6.375 -6.9375 L 5.875 -6.1875 C 5.515625 -6.546875 5 -7.046875 4.046875 -7.046875 C 2.171875 -7.046875 0.5625 -5.453125 0.5625 -3.421875 C 0.5625 -1.34375 2.1875 0.21875 4.046875 0.21875 C 5.671875 0.21875 6.65625 -1.171875 6.65625 -2.328125 Z M 6.65625 -2.328125 "/>
</g>
<g id="glyph-0-6-b09ba276">
<path d="M 4.703125 -2.140625 C 4.703125 -3.421875 3.703125 -4.484375 2.5 -4.484375 C 1.25 -4.484375 0.28125 -3.390625 0.28125 -2.140625 C 0.28125 -0.84375 1.3125 0.109375 2.484375 0.109375 C 3.703125 0.109375 4.703125 -0.875 4.703125 -2.140625 Z M 3.875 -2.21875 C 3.875 -1.859375 3.875 -1.3125 3.65625 -0.875 C 3.4375 -0.4375 3 -0.140625 2.5 -0.140625 C 2.0625 -0.140625 1.625 -0.34375 1.359375 -0.8125 C 1.109375 -1.25 1.109375 -1.859375 1.109375 -2.21875 C 1.109375 -2.609375 1.109375 -3.15625 1.34375 -3.59375 C 1.625 -4.046875 2.09375 -4.265625 2.484375 -4.265625 C 2.9375 -4.265625 3.359375 -4.046875 3.625 -3.609375 C 3.875 -3.1875 3.875 -2.59375 3.875 -2.21875 Z M 3.875 -2.21875 "/>
</g>
<g id="glyph-0-7-b09ba276">
<path d="M 5.34375 0 L 5.34375 -0.3125 C 4.828125 -0.3125 4.578125 -0.3125 4.5625 -0.609375 L 4.5625 -2.515625 C 4.5625 -3.375 4.5625 -3.6875 4.265625 -4.046875 C 4.125 -4.21875 3.796875 -4.421875 3.203125 -4.421875 C 2.484375 -4.421875 2.015625 -3.984375 1.734375 -3.375 L 1.734375 -4.421875 L 0.3125 -4.3125 L 0.3125 -4 C 1.015625 -4 1.09375 -3.9375 1.09375 -3.4375 L 1.09375 -0.765625 C 1.09375 -0.3125 0.984375 -0.3125 0.3125 -0.3125 L 0.3125 0 L 1.453125 -0.03125 L 2.5625 0 L 2.5625 -0.3125 C 1.90625 -0.3125 1.796875 -0.3125 1.796875 -0.765625 L 1.796875 -2.59375 C 1.796875 -3.640625 2.5 -4.203125 3.140625 -4.203125 C 3.765625 -4.203125 3.875 -3.65625 3.875 -3.09375 L 3.875 -0.765625 C 3.875 -0.3125 3.765625 -0.3125 3.09375 -0.3125 L 3.09375 0 L 4.234375 -0.03125 Z M 5.34375 0 "/>
</g>
<g id="glyph-0-8-b09ba276">
<path d="M 4.15625 -1.1875 C 4.15625 -1.296875 4.0625 -1.3125 4.015625 -1.3125 C 3.9375 -1.3125 3.90625 -1.25 3.890625 -1.171875 C 3.546875 -0.140625 2.640625 -0.140625 2.546875 -0.140625 C 2.046875 -0.140625 1.640625 -0.4375 1.40625 -0.8125 C 1.109375 -1.296875 1.109375 -1.953125 1.109375 -2.3125 L 3.90625 -2.3125 C 4.125 -2.3125 4.15625 -2.3125 4.15625 -2.515625 C 4.15625 -3.515625 3.609375 -4.484375 2.359375 -4.484375 C 1.203125 -4.484375 0.28125 -3.453125 0.28125 -2.203125 C 0.28125 -0.859375 1.328125 0.109375 2.484375 0.109375 C 3.703125 0.109375 4.15625 -1 4.15625 -1.1875 Z M 3.484375 -2.515625 L 1.125 -2.515625 C 1.1875 -4.015625 2.015625 -4.265625 2.359375 -4.265625 C 3.390625 -4.265625 3.484375 -2.90625 3.484375 -2.515625 Z M 3.484375 -2.515625 "/>
</g>
<g id="glyph-0-9-b09ba276">
<path d="M 3.59375 -1.28125 C 3.59375 -1.8125 3.296875 -2.109375 3.1875 -2.234375 C 2.84375 -2.546875 2.453125 -2.625 2.046875 -2.703125 C 1.484375 -2.8125 0.8125 -2.953125 0.8125 -3.53125 C 0.8125 -3.875 1.0625 -4.296875 1.9375 -4.296875 C 3.03125 -4.296875 3.078125 -3.390625 3.09375 -3.078125 C 3.109375 -2.984375 3.21875 -2.984375 3.21875 -2.984375 C 3.34375 -2.984375 3.34375 -3.046875 3.34375 -3.234375 L 3.34375 -4.234375 C 3.34375 -4.40625 3.34375 -4.484375 3.234375 -4.484375 C 3.1875 -4.484375 3.171875 -4.484375 3.046875 -4.359375 C 3.015625 -4.3125 2.90625 -4.234375 2.875 -4.203125 C 2.484375 -4.484375 2.078125 -4.484375 1.9375 -4.484375 C 0.703125 -4.484375 0.328125 -3.8125 0.328125 -3.25 C 0.328125 -2.90625 0.484375 -2.625 0.765625 -2.40625 C 1.078125 -2.140625 1.359375 -2.078125 2.078125 -1.9375 C 2.296875 -1.90625 3.125 -1.734375 3.125 -1.015625 C 3.125 -0.515625 2.765625 -0.109375 1.984375 -0.109375 C 1.15625 -0.109375 0.796875 -0.6875 0.59375 -1.53125 C 0.5625 -1.65625 0.5625 -1.703125 0.453125 -1.703125 C 0.328125 -1.703125 0.328125 -1.625 0.328125 -1.453125 L 0.328125 -0.125 C 0.328125 0.046875 0.328125 0.109375 0.4375 0.109375 C 0.484375 0.109375 0.5 0.09375 0.6875 -0.09375 C 0.703125 -0.109375 0.703125 -0.125 0.890625 -0.3125 C 1.328125 0.09375 1.78125 0.109375 1.984375 0.109375 C 3.140625 0.109375 3.59375 -0.5625 3.59375 -1.28125 Z M 3.59375 -1.28125 "/>
</g>
<g id="glyph-1-0-b09ba276">
<path d="M 1.921875 -0.53125 C 1.921875 -0.8125 1.6875 -1.0625 1.390625 -1.0625 C 1.09375 -1.0625 0.859375 -0.8125 0.859375 -0.53125 C 0.859375 -0.234375 1.09375 0 1.390625 0 C 1.6875 0 1.921875 -0.234375 1.921875 -0.53125 Z M 1.921875 -0.53125 "/>
</g>
</g>
</defs>
<path fill-rule="nonzero" fill="rgb(100%, 100%, 100%)" fill-opacity="1" d="M 23 419 L 706 419 L 706 2 L 23 2 Z M 23 419 "/>
<g fill="rgb(0%, 0%, 0%)" fill-opacity="1">
<use xlink:href="#glyph-0-0-b09ba276" x="43.765456" y="434.06"/>
</g>
<g fill="rgb(0%, 0%, 0%)" fill-opacity="1">
<use xlink:href="#glyph-0-1-b09ba276" x="51.545456" y="434.06"/>
</g>
<g fill="rgb(0%, 0%, 0%)" fill-opacity="1">
<use xlink:href="#glyph-0-2-b09ba276" x="56.545456" y="434.06"/>
</g>
<g fill="rgb(0%, 0%, 0%)" fill-opacity="1">
<use xlink:href="#glyph-0-3-b09ba276" x="59.325456" y="434.06"/>
</g>
<g fill="rgb(0%, 0%, 0%)" fill-opacity="1">
<use xlink:href="#glyph-0-0-b09ba276" x="198.992721" y="434.06"/>
</g>
<g fill="rgb(0%, 0%, 0%)" fill-opacity="1">
<use xlink:href="#glyph-0-3-b09ba276" x="206.772721" y="434.06"/>
</g>
<g fill="rgb(0%, 0%, 0%)" fill-opacity="1">
<use xlink:href="#glyph-0-2-b09ba276" x="211.772721" y="434.06"/>
</g>
<g fill="rgb(0%, 0%, 0%)" fill-opacity="1">
<use xlink:href="#glyph-0-4-b09ba276" x="214.55272" y="434.06"/>
</g>
<g fill="rgb(0%, 0%, 0%)" fill-opacity="1">
<use xlink:href="#glyph-0-3-b09ba276" x="358.110001" y="434.06"/>
</g>
<g fill="rgb(0%, 0%, 0%)" fill-opacity="1">
<use xlink:href="#glyph-0-2-b09ba276" x="363.110001" y="434.06"/>
</g>
<g fill="rgb(0%, 0%, 0%)" fill-opacity="1">
<use xlink:href="#glyph-0-3-b09ba276" x="365.890001" y="434.06"/>
</g>
<g fill="rgb(0%, 0%, 0%)" fill-opacity="1">
<use xlink:href="#glyph-0-3-b09ba276" x="513.337296" y="434.06"/>
</g>
<g fill="rgb(0%, 0%, 0%)" fill-opacity="1">
<use xlink:href="#glyph-0-2-b09ba276" x="518.337296" y="434.06"/>
</g>
<g fill="rgb(0%, 0%, 0%)" fill-opacity="1">
<use xlink:href="#glyph-0-4-b09ba276" x="521.117296" y="434.06"/>
</g>
<g fill="rgb(0%, 0%, 0%)" fill-opacity="1">
<use xlink:href="#glyph-0-1-b09ba276" x="668.56453" y="434.06"/>
</g>
<g fill="rgb(0%, 0%, 0%)" fill-opacity="1">
<use xlink:href="#glyph-0-2-b09ba276" x="673.56453" y="434.06"/>
</g>
<g fill="rgb(0%, 0%, 0%)" fill-opacity="1">
<use xlink:href="#glyph-0-3-b09ba276" x="676.34453" y="434.06"/>
</g>
<g fill="rgb(0%, 0%, 0%)" fill-opacity="1">
<use xlink:href="#glyph-0-3-b09ba276" x="1.22" y="403.105457"/>
</g>
<g fill="rgb(0%, 0%, 0%)" fill-opacity="1">
<use xlink:href="#glyph-1-0-b09ba276" x="6.22" y="403.105457"/>
</g>
<g fill="rgb(0%, 0%, 0%)" fill-opacity="1">
<use xlink:href="#glyph-0-3-b09ba276" x="9" y="403.105457"/>
</g>
<g fill="rgb(0%, 0%, 0%)" fill-opacity="1">
<use xlink:href="#glyph-0-3-b09ba276" x="1.22" y="213.552213"/>
</g>
<g fill="rgb(0%, 0%, 0%)" fill-opacity="1">
<use xlink:href="#glyph-1-0-b09ba276" x="6.22" y="213.552213"/>
</g>
<g fill="rgb(0%, 0%, 0%)" fill-opacity="1">
<use xlink:href="#glyph-0-4-b09ba276" x="9" y="213.552213"/>
</g>
<g fill="rgb(0%, 0%, 0%)" fill-opacity="1">
<use xlink:href="#glyph-0-1-b09ba276" x="1.22" y="23.998953"/>
</g>
<g fill="rgb(0%, 0%, 0%)" fill-opacity="1">
<use xlink:href="#glyph-1-0-b09ba276" x="6.22" y="23.998953"/>
</g>
<g fill="rgb(0%, 0%, 0%)" fill-opacity="1">
<use xlink:href="#glyph-0-3-b09ba276" x="9" y="23.998953"/>
</g>
<path fill="none" stroke-width="1.5" stroke-linecap="butt" stroke-linejoin="miter" stroke="rgb(0%, 44.705883%, 69.803923%)" stroke-opacity="1" stroke-miterlimit="2" d="M 54.046875 400.046875 L 55.648438 400.003906 L 57.25 399.886719 L 58.851562 399.6875 L 60.457031 399.414062 L 65.148438 398.175781 L 69.839844 396.316406 L 74.535156 393.871094 L 79.226562 390.863281 L 83.921875 387.320312 L 88.613281 383.28125 L 93.304688 378.765625 L 98 373.800781 L 102.363281 368.804688 L 106.730469 363.46875 L 111.097656 357.8125 L 115.464844 351.855469 L 121.316406 343.4375 L 127.167969 334.566406 L 133.019531 325.289062 L 138.875 315.652344 L 148.546875 299.054688 L 158.21875 281.792969 L 167.210938 265.308594 L 176.207031 248.554688 L 198.785156 206.191406 L 219.039062 169.117188 L 224.835938 158.859375 L 230.632812 148.808594 L 236.429688 138.992188 L 242.226562 129.433594 L 250.890625 115.675781 L 259.554688 102.628906 L 265.097656 94.683594 L 270.640625 87.078125 L 276.179688 79.820312 L 281.722656 72.925781 L 286.78125 66.96875 L 291.835938 61.335938 L 296.894531 56.039062 L 301.953125 51.089844 L 307.710938 45.886719 L 313.464844 41.152344 L 319.222656 36.894531 L 324.980469 33.125 L 329.542969 30.492188 L 334.105469 28.171875 L 338.667969 26.171875 L 343.230469 24.488281 L 348.902344 22.851562 L 354.570312 21.714844 L 360.238281 21.082031 L 365.910156 20.953125 L 370.25 21.199219 L 374.589844 21.738281 L 378.933594 22.574219 L 383.273438 23.707031 L 389.394531 25.800781 L 395.515625 28.46875 L 401.636719 31.710938 L 407.757812 35.519531 L 412.332031 38.726562 L 416.90625 42.238281 L 421.480469 46.050781 L 426.054688 50.160156 L 431.257812 55.1875 L 436.460938 60.582031 L 441.664062 66.332031 L 446.863281 72.429688 L 452.015625 78.796875 L 457.167969 85.484375 L 462.320312 92.476562 L 467.472656 99.761719 L 473.140625 108.101562 L 478.808594 116.757812 L 484.472656 125.714844 L 490.140625 134.953125 L 498.800781 149.550781 L 507.460938 164.667969 L 529.3125 204.511719 L 549.523438 242.417969 L 559.945312 261.890625 L 570.367188 281.039062 L 580.929688 299.890625 L 591.496094 317.9375 L 597.011719 326.953125 L 602.527344 335.640625 L 608.042969 343.964844 L 613.558594 351.886719 L 617.902344 357.8125 L 622.246094 363.441406 L 626.589844 368.753906 L 630.9375 373.730469 L 635.882812 378.953125 L 640.832031 383.683594 L 645.777344 387.882812 L 650.726562 391.515625 L 655.671875 394.554688 L 660.621094 396.960938 L 665.566406 398.699219 L 670.515625 399.738281 L 671.625 399.871094 L 672.734375 399.96875 L 673.84375 400.027344 L 674.953125 400.046875 "/>
<path fill="none" stroke-width="0.7" stroke-linecap="butt" stroke-linejoin="miter" stroke="rgb(0%, 0%, 0%)" stroke-opacity="1" stroke-miterlimit="1.154701" d="M 54.046875 419.5 L 54.046875 423.5 "/>
<path fill="none" stroke-width="0.7" stroke-linecap="butt" stroke-linejoin="miter" stroke="rgb(0%, 0%, 0%)" stroke-opacity="1" stroke-miterlimit="1.154701" d="M 209.273438 419.5 L 209.273438 423.5 "/>
<path fill="none" stroke-width="0.7" stroke-linecap="butt" stroke-linejoin="miter" stroke="rgb(0%, 0%, 0%)" stroke-opacity="1" stroke-miterlimit="1.154701" d="M 364.5 419.5 L 364.5 423.5 "/>
<path fill="none" stroke-width="0.7" stroke-linecap="butt" stroke-linejoin="miter" stroke="rgb(0%, 0%, 0%)" stroke-opacity="1" stroke-miterlimit="1.154701" d="M 519.726562 419.5 L 519.726562 423.5 "/>
<path fill="none" stroke-width="0.7" stroke-linecap="butt" stroke-linejoin="miter" stroke="rgb(0%, 0%, 0%)" stroke-opacity="1" stroke-miterlimit="1.154701" d="M 674.953125 419.5 L 674.953125 423.5 "/>
<path fill="none" stroke-width="0.7" stroke-linecap="butt" stroke-linejoin="miter" stroke="rgb(0%, 0%, 0%)" stroke-opacity="1" stroke-miterlimit="1.154701" d="M 22.5 400.046875 L 18.5 400.046875 "/>
<path fill="none" stroke-width="0.7" stroke-linecap="butt" stroke-linejoin="miter" stroke="rgb(0%, 0%, 0%)" stroke-opacity="1" stroke-miterlimit="1.154701" d="M 22.5 210.492188 L 18.5 210.492188 "/>
<path fill="none" stroke-width="0.7" stroke-linecap="butt" stroke-linejoin="miter" stroke="rgb(0%, 0%, 0%)" stroke-opacity="1" stroke-miterlimit="1.154701" d="M 22.5 20.9375 L 18.5 20.9375 "/>
<path fill="none" stroke-width="1.5" stroke-linecap="butt" stroke-linejoin="miter" stroke="rgb(0%, 44.705883%, 69.803923%)" stroke-opacity="1" stroke-miterlimit="2" d="M 637.140625 24 L 657.140625 24 "/>
<g fill="rgb(0%, 0%, 0%)" fill-opacity="1">
<use xlink:href="#glyph-0-5-b09ba276" x="662.140001" y="27.060018"/>
</g>
<g fill="rgb(0%, 0%, 0%)" fill-opacity="1">
<use xlink:href="#glyph-0-6-b09ba276" x="669.360001" y="27.060018"/>
</g>
<g fill="rgb(0%, 0%, 0%)" fill-opacity="1">
<use xlink:href="#glyph-0-7-b09ba276" x="674.360001" y="27.060018"/>
</g>
<g fill="rgb(0%, 0%, 0%)" fill-opacity="1">
<use xlink:href="#glyph-0-7-b09ba276" x="679.920001" y="27.060018"/>
</g>
<g fill="rgb(0%, 0%, 0%)" fill-opacity="1">
<use xlink:href="#glyph-0-8-b09ba276" x="685.480001" y="27.060018"/>
</g>
<g fill="rgb(0%, 0%, 0%)" fill-opacity="1">
<use xlink:href="#glyph-0-9-b09ba276" x="689.920001" y="27.060018"/>
</g>
<path fill="none" stroke-width="1" stroke-linecap="butt" stroke-linejoin="miter" stroke="rgb(0%, 0%, 0%)" stroke-opacity="1" stroke-miterlimit="1.154701" d="M 22.5 419 L 706.5 419 "/>
<path fill="none" stroke-width="1" stroke-linecap="butt" stroke-linejoin="miter" stroke="rgb(0%, 0%, 0%)" stroke-opacity="1" stroke-miterlimit="1.154701" d="M 23 419.5 L 23 1.5 "/>
<path fill="none" stroke-width="1" stroke-linecap="butt" stroke-linejoin="miter" stroke="rgb(0%, 0%, 0%)" stroke-opacity="1" stroke-miterlimit="1.154701" d="M 22.5 2 L 706.5 2 "/>
<path fill="none" stroke-width="1" stroke-linecap="butt" stroke-linejoin="miter" stroke="rgb(0%, 0%, 0%)" stroke-opacity="1" stroke-miterlimit="1.154701" d="M 706 419.5 L 706 1.5 "/>
</svg>
