<?xml version="1.0" encoding="UTF-8"?>
<svg xmlns="http://www.w3.org/2000/svg" xmlns:xlink="http://www.w3.org/1999/xlink" width="708" height="437" viewBox="0 0 708 437">
<defs>
<g>
<g id="glyph-0-0-23bbeef1">
<path d="M 7.21875 -2.5 C 7.21875 -2.609375 7.125 -2.703125 7.015625 -2.703125 L 0.765625 -2.703125 C 0.65625 -2.703125 0.5625 -2.609375 0.5625 -2.5 C 0.5625 -2.390625 0.65625 -2.296875 0.765625 -2.296875 L 7.015625 -2.296875 C 7.125 -2.296875 7.21875 -2.390625 7.21875 -2.5 Z M 7.21875 -2.5 "/>
</g>
<g id="glyph-0-1-23bbeef1">
<path d="M 4.1875 0 L 4.1875 -0.3125 L 3.875 -0.3125 C 2.96875 -0.3125 2.9375 -0.421875 2.9375 -0.796875 L 2.9375 -6.40625 C 2.9375 -6.640625 2.9375 -6.65625 2.703125 -6.65625 C 2.09375 -6.015625 1.203125 -6.015625 0.890625 -6.015625 L 0.890625 -5.703125 C 1.09375 -5.703125 1.6875 -5.703125 2.203125 -5.96875 L 2.203125 -0.796875 C 2.203125 -0.4375 2.171875 -0.3125 1.265625 -0.3125 L 0.953125 -0.3125 L 0.953125 0 C 1.296875 -0.03125 2.171875 -0.03125 2.5625 -0.03125 C 2.96875 -0.03125 3.84375 -0.03125 4.1875 0 Z M 4.1875 0 "/>
</g>
<g id="glyph-0-2-23bbeef1">
<path d="M 1.921875 -0.53125 C 1.921875 -0.8125 1.6875 -1.0625 1.390625 -1.0625 C 1.09375 -1.0625 0.859375 -0.8125 0.859375 -0.53125 C 0.859375 -0.234375 1.09375 0 1.390625 0 C 1.6875 0 1.921875 -0.234375 1.921875 -0.53125 Z M 1.921875 -0.53125 "/>
</g>
<g id="glyph-0-3-23bbeef1">
<path d="M 4.59375 -3.203125 C 4.59375 -4 4.546875 -4.796875 4.203125 -5.546875 C 3.734375 -6.5 2.921875 -6.65625 2.5 -6.65625 C 1.90625 -6.65625 1.171875 -6.40625 0.765625 -5.46875 C 0.4375 -4.78125 0.390625 -4 0.390625 -3.203125 C 0.390625 -2.453125 0.4375 -1.546875 0.84375 -0.796875 C 1.265625 0.015625 2 0.21875 2.484375 0.21875 C 3.03125 0.21875 3.796875 0.015625 4.234375 -0.9375 C 4.546875 -1.625 4.59375 -2.40625 4.59375 -3.203125 Z M 3.765625 -3.3125 C 3.765625 -2.5625 3.765625 -1.890625 3.65625 -1.25 C 3.515625 -0.296875 2.9375 0 2.484375 0 C 2.09375 0 1.515625 -0.25 1.328125 -1.203125 C 1.21875 -1.8125 1.21875 -2.734375 1.21875 -3.3125 C 1.21875 -3.953125 1.21875 -4.625 1.296875 -5.15625 C 1.484375 -6.34375 2.234375 -6.4375 2.484375 -6.4375 C 2.8125 -6.4375 3.484375 -6.265625 3.671875 -5.265625 C 3.765625 -4.703125 3.765625 -3.953125 3.765625 -3.3125 Z M 3.765625 -3.3125 "/>
</g>
<g id="glyph-0-4-23bbeef1">
<path d="M 4.484375 -2.015625 C 4.484375 -3.203125 3.671875 -4.203125 2.59375 -4.203125 C 2.109375 -4.203125 1.6875 -4.046875 1.3125 -3.6875 L 1.3125 -5.640625 C 1.515625 -5.578125 1.84375 -5.515625 2.171875 -5.515625 C 3.40625 -5.515625 4.09375 -6.421875 4.09375 -6.546875 C 4.09375 -6.609375 4.0625 -6.65625 4 -6.65625 C 4 -6.65625 3.96875 -6.65625 3.921875 -6.625 C 3.71875 -6.546875 3.234375 -6.34375 2.5625 -6.34375 C 2.15625 -6.34375 1.703125 -6.40625 1.234375 -6.625 C 1.15625 -6.65625 1.109375 -6.65625 1.109375 -6.65625 C 1.015625 -6.65625 1.015625 -6.5625 1.015625 -6.40625 L 1.015625 -3.453125 C 1.015625 -3.265625 1.015625 -3.1875 1.15625 -3.1875 C 1.21875 -3.1875 1.234375 -3.21875 1.28125 -3.28125 C 1.390625 -3.4375 1.765625 -3.984375 2.5625 -3.984375 C 3.09375 -3.984375 3.34375 -3.515625 3.421875 -3.34375 C 3.578125 -2.96875 3.59375 -2.578125 3.59375 -2.078125 C 3.59375 -1.734375 3.59375 -1.125 3.359375 -0.703125 C 3.125 -0.3125 2.75 -0.0625 2.296875 -0.0625 C 1.5625 -0.0625 0.984375 -0.59375 0.8125 -1.1875 C 0.84375 -1.171875 0.875 -1.15625 0.984375 -1.15625 C 1.3125 -1.15625 1.484375 -1.40625 1.484375 -1.65625 C 1.484375 -1.890625 1.3125 -2.140625 0.984375 -2.140625 C 0.84375 -2.140625 0.5 -2.0625 0.5 -1.609375 C 0.5 -0.75 1.1875 0.21875 2.3125 0.21875 C 3.46875 0.21875 4.484375 -0.734375 4.484375 -2.015625 Z M 4.484375 -2.015625 "/>
</g>
<g id="glyph-0-5-23bbeef1">
<path d="M 7.15625 -6.515625 L 7.15625 -6.828125 L 5.984375 -6.796875 L 4.8125 -6.828125 L 4.8125 -6.515625 C 5.84375 -6.515625 5.84375 -6.046875 5.84375 -5.78125 L 5.84375 -1.515625 L 2.3125 -6.703125 C 2.234375 -6.8125 2.21875 -6.828125 2.03125 -6.828125 L 0.328125 -6.828125 L 0.328125 -6.515625 L 0.625 -6.515625 C 0.765625 -6.515625 0.96875 -6.515625 1.125 -6.5 C 1.34375 -6.46875 1.359375 -6.453125 1.359375 -6.265625 L 1.359375 -1.046875 C 1.359375 -0.78125 1.359375 -0.3125 0.328125 -0.3125 L 0.328125 0 L 1.5 -0.03125 L 2.671875 0 L 2.671875 -0.3125 C 1.640625 -0.3125 1.640625 -0.78125 1.640625 -1.046875 L 1.640625 -6.25 C 1.6875 -6.203125 1.703125 -6.1875 1.734375 -6.125 L 5.8125 -0.125 C 5.90625 -0.015625 5.921875 0 5.984375 0 C 6.125 0 6.125 -0.0625 6.125 -0.265625 L 6.125 -5.78125 C 6.125 -6.046875 6.125 -6.515625 7.15625 -6.515625 Z M 7.15625 -6.515625 "/>
</g>
<g id="glyph-0-6-23bbeef1">
<path d="M 5.34375 0 L 5.34375 -0.3125 C 4.65625 -0.3125 4.5625 -0.375 4.5625 -0.875 L 4.5625 -4.421875 L 3.09375 -4.3125 L 3.09375 -4 C 3.796875 -4 3.875 -3.9375 3.875 -3.4375 L 3.875 -1.65625 C 3.875 -0.796875 3.40625 -0.109375 2.671875 -0.109375 C 1.828125 -0.109375 1.796875 -0.578125 1.796875 -1.09375 L 1.796875 -4.421875 L 0.3125 -4.3125 L 0.3125 -4 C 1.09375 -4 1.09375 -3.96875 1.09375 -3.078125 L 1.09375 -1.578125 C 1.09375 -0.796875 1.09375 0.109375 2.625 0.109375 C 3.1875 0.109375 3.625 -0.171875 3.90625 -0.796875 L 3.90625 0.109375 Z M 5.34375 0 "/>
</g>
<g id="glyph-0-7-23bbeef1">
<path d="M 3.3125 -1.234375 L 3.3125 -1.8125 L 3.0625 -1.8125 L 3.0625 -1.265625 C 3.0625 -0.515625 2.765625 -0.140625 2.40625 -0.140625 C 1.734375 -0.140625 1.734375 -1.046875 1.734375 -1.21875 L 1.734375 -4 L 3.15625 -4 L 3.15625 -4.3125 L 1.734375 -4.3125 L 1.734375 -6.15625 L 1.484375 -6.15625 C 1.46875 -5.328125 1.171875 -4.265625 0.1875 -4.21875 L 0.1875 -4 L 1.046875 -4 L 1.046875 -1.234375 C 1.046875 -0.015625 1.96875 0.109375 2.328125 0.109375 C 3.046875 0.109375 3.3125 -0.59375 3.3125 -1.234375 Z M 3.3125 -1.234375 "/>
</g>
<g id="glyph-0-8-23bbeef1">
<path d="M 4.828125 -0.890625 L 4.828125 -1.453125 L 4.578125 -1.453125 L 4.578125 -0.890625 C 4.578125 -0.3125 4.328125 -0.25 4.21875 -0.25 C 3.890625 -0.25 3.84375 -0.703125 3.84375 -0.75 L 3.84375 -2.75 C 3.84375 -3.171875 3.84375 -3.5625 3.484375 -3.9375 C 3.09375 -4.3125 2.59375 -4.484375 2.125 -4.484375 C 1.296875 -4.484375 0.609375 -4.015625 0.609375 -3.34375 C 0.609375 -3.046875 0.8125 -2.875 1.0625 -2.875 C 1.34375 -2.875 1.53125 -3.078125 1.53125 -3.34375 C 1.53125 -3.453125 1.484375 -3.796875 1.015625 -3.796875 C 1.296875 -4.15625 1.78125 -4.265625 2.09375 -4.265625 C 2.59375 -4.265625 3.15625 -3.875 3.15625 -2.984375 L 3.15625 -2.609375 C 2.65625 -2.578125 1.953125 -2.546875 1.3125 -2.25 C 0.5625 -1.90625 0.3125 -1.390625 0.3125 -0.953125 C 0.3125 -0.140625 1.296875 0.109375 1.921875 0.109375 C 2.578125 0.109375 3.046875 -0.296875 3.234375 -0.765625 C 3.265625 -0.359375 3.546875 0.0625 4.015625 0.0625 C 4.21875 0.0625 4.828125 -0.078125 4.828125 -0.890625 Z M 3.15625 -1.40625 C 3.15625 -0.453125 2.4375 -0.109375 1.984375 -0.109375 C 1.5 -0.109375 1.09375 -0.453125 1.09375 -0.953125 C 1.09375 -1.515625 1.515625 -2.34375 3.15625 -2.40625 Z M 3.15625 -1.40625 "/>
</g>
<g id="glyph-0-9-23bbeef1">
<path d="M 2.546875 0 L 2.546875 -0.3125 C 1.875 -0.3125 1.765625 -0.3125 1.765625 -0.765625 L 1.765625 -6.9375 L 0.328125 -6.828125 L 0.328125 -6.515625 C 1.03125 -6.515625 1.109375 -6.453125 1.109375 -5.953125 L 1.109375 -0.765625 C 1.109375 -0.3125 1 -0.3125 0.328125 -0.3125 L 0.328125 0 L 1.4375 -0.03125 Z M 2.546875 0 "/>
</g>
<g id="glyph-1-0-23bbeef1">
<path d="M 1.921875 -0.53125 C 1.921875 -0.8125 1.6875 -1.0625 1.390625 -1.0625 C 1.09375 -1.0625 0.859375 -0.8125 0.859375 -0.53125 C 0.859375 -0.234375 1.09375 0 1.390625 0 C 1.6875 0 1.921875 -0.234375 1.921875 -0.53125 Z M 1.921875 -0.53125 "/>
</g>
</g>
</defs>
<path fill-rule="nonzero" fill="rgb(100%, 100%, 100%)" fill-opacity="1" d="M 23 419 L 706 419 L 706 2 L 23 2 Z M 23 419 "/>
<g fill="rgb(0%, 0%, 0%)" fill-opacity="1">
<use xlink:href="#glyph-0-0-23bbeef1" x="43.765456" y="434.06"/>
</g>
<g fill="rgb(0%, 0%, 0%)" fill-opacity="1">
<use xlink:href="#glyph-0-1-23bbeef1" x="51.545456" y="434.06"/>
</g>
<g fill="rgb(0%, 0%, 0%)" fill-opacity="1">
<use xlink:href="#glyph-0-2-23bbeef1" x="56.545456" y="434.06"/>
</g>
<g fill="rgb(0%, 0%, 0%)" fill-opacity="1">
<use xlink:href="#glyph-0-3-23bbeef1" x="59.325456" y="434.06"/>
</g>
<g fill="rgb(0%, 0%, 0%)" fill-opacity="1">
<use xlink:href="#glyph-0-0-23bbeef1" x="198.992721" y="434.06"/>
</g>
<g fill="rgb(0%, 0%, 0%)" fill-opacity="1">
<use xlink:href="#glyph-0-3-23bbeef1" x="206.772721" y="434.06"/>
</g>
<g fill="rgb(0%, 0%, 0%)" fill-opacity="1">
<use xlink:href="#glyph-0-2-23bbeef1" x="211.772721" y="434.06"/>
</g>
<g fill="rgb(0%, 0%, 0%)" fill-opacity="1">
<use xlink:href="#glyph-0-4-23bbeef1" x="214.55272" y="434.06"/>
</g>
<g fill="rgb(0%, 0%, 0%)" fill-opacity="1">
<use xlink:href="#glyph-0-3-23bbeef1" x="358.110001" y="434.06"/>
</g>
<g fill="rgb(0%, 0%, 0%)" fill-opacity="1">
<use xlink:href="#glyph-0-2-23bbeef1" x="363.110001" y="434.06"/>
</g>
<g fill="rgb(0%, 0%, 0%)" fill-opacity="1">
<use xlink:href="#glyph-0-3-23bbeef1" x="365.890001" y="434.06"/>
</g>
<g fill="rgb(0%, 0%, 0%)" fill-opacity="1">
<use xlink:href="#glyph-0-3-23bbeef1" x="513.337296" y="434.06"/>
</g>
<g fill="rgb(0%, 0%, 0%)" fill-opacity="1">
<use xlink:href="#glyph-0-2-23bbeef1" x="518.337296" y="434.06"/>
</g>
<g fill="rgb(0%, 0%, 0%)" fill-opacity="1">
<use xlink:href="#glyph-0-4-23bbeef1" x="521.117296" y="434.06"/>
</g>
<g fill="rgb(0%, 0%, 0%)" fill-opacity="1">
<use xlink:href="#glyph-0-1-23bbeef1" x="668.56453" y="434.06"/>
</g>
<g fill="rgb(0%, 0%, 0%)" fill-opacity="1">
<use xlink:href="#glyph-0-2-23bbeef1" x="673.56453" y="434.06"/>
</g>
<g fill="rgb(0%, 0%, 0%)" fill-opacity="1">
<use xlink:href="#glyph-0-3-23bbeef1" x="676.34453" y="434.06"/>
</g>
<g fill="rgb(0%, 0%, 0%)" fill-opacity="1">
<use xlink:href="#glyph-0-3-23bbeef1" x="1.22" y="403.105457"/>
</g>
<g fill="rgb(0%, 0%, 0%)" fill-opacity="1">
<use xlink:href="#glyph-1-0-23bbeef1" x="6.22" y="403.105457"/>
</g>
<g fill="rgb(0%, 0%, 0%)" fill-opacity="1">
<use xlink:href="#glyph-0-3-23bbeef1" x="9" y="403.105457"/>
</g>
<g fill="rgb(0%, 0%, 0%)" fill-opacity="1">
<use xlink:href="#glyph-0-3-23bbeef1" x="1.22" y="213.537335"/>
</g>
<g fill="rgb(0%, 0%, 0%)" fill-opacity="1">
<use xlink:href="#glyph-1-0-23bbeef1" x="6.22" y="213.537335"/>
</g>
<g fill="rgb(0%, 0%, 0%)" fill-opacity="1">
<use xlink:href="#glyph-0-4-23bbeef1" x="9" y="213.537335"/>
</g>
<g fill="rgb(0%, 0%, 0%)" fill-opacity="1">
<use xlink:href="#glyph-0-1-23bbeef1" x="1.22" y="23.969229"/>
</g>
<g fill="rgb(0%, 0%, 0%)" fill-opacity="1">
<use xlink:href="#glyph-1-0-23bbeef1" x="6.22" y="23.969229"/>
</g>
<g fill="rgb(0%, 0%, 0%)" fill-opacity="1">
<use xlink:href="#glyph-0-3-23bbeef1" x="9" y="23.969229"/>
</g>
<path fill="none" stroke-width="1.5" stroke-linecap="butt" stroke-linejoin="miter" stroke="rgb(0%, 44.705883%, 69.803923%)" stroke-opacity="1" stroke-miterlimit="2" d="M 54.046875 400.046875 L 57.25 400.039062 L 60.457031 400.027344 L 79.226562 399.699219 L 98 398.652344 L 106.730469 397.734375 L 115.464844 396.40625 L 121.316406 395.230469 L 127.167969 393.777344 L 133.019531 392.003906 L 138.875 389.871094 L 143.710938 387.804688 L 148.546875 385.429688 L 153.382812 382.722656 L 158.21875 379.660156 L 162.714844 376.46875 L 167.210938 372.925781 L 171.707031 369.007812 L 176.207031 364.703125 L 181.851562 358.726562 L 187.496094 352.078125 L 193.140625 344.738281 L 198.785156 336.695312 L 203.851562 328.867188 L 208.914062 320.460938 L 213.976562 311.484375 L 219.039062 301.9375 L 224.835938 290.34375 L 230.632812 278.066406 L 236.429688 265.15625 L 242.226562 251.664062 L 250.890625 230.578125 L 259.554688 208.640625 L 270.640625 179.878906 L 281.722656 151.070312 L 286.78125 138.144531 L 291.835938 125.480469 L 296.894531 113.164062 L 301.953125 101.289062 L 307.710938 88.414062 L 313.464844 76.347656 L 316.34375 70.65625 L 319.222656 65.210938 L 322.101562 60.027344 L 324.980469 55.117188 L 329.542969 47.925781 L 334.105469 41.5 L 338.667969 35.886719 L 343.230469 31.121094 L 346.066406 28.605469 L 348.902344 26.433594 L 351.734375 24.617188 L 354.570312 23.15625 L 357.40625 22.058594 L 360.238281 21.324219 L 363.074219 20.957031 L 365.910156 20.953125 L 370.25 21.664062 L 374.589844 23.230469 L 378.933594 25.644531 L 383.273438 28.890625 L 386.335938 31.667969 L 389.394531 34.839844 L 392.457031 38.398438 L 395.515625 42.328125 L 398.578125 46.625 L 401.636719 51.269531 L 404.699219 56.25 L 407.757812 61.550781 L 412.332031 70.035156 L 416.90625 79.148438 L 421.480469 88.832031 L 426.054688 99.019531 L 431.257812 111.144531 L 436.460938 123.746094 L 441.664062 136.734375 L 446.863281 150.003906 L 457.167969 176.765625 L 467.472656 203.5625 L 473.140625 218.078125 L 478.808594 232.3125 L 484.472656 246.167969 L 490.140625 259.570312 L 494.472656 269.457031 L 498.800781 279.007812 L 503.128906 288.203125 L 507.460938 297.023438 L 512.921875 307.59375 L 518.386719 317.507812 L 523.847656 326.761719 L 529.3125 335.34375 L 534.363281 342.679688 L 539.417969 349.445312 L 544.46875 355.65625 L 549.523438 361.320312 L 554.734375 366.609375 L 559.945312 371.367188 L 565.15625 375.613281 L 570.367188 379.378906 L 575.648438 382.742188 L 580.929688 385.675781 L 586.214844 388.21875 L 591.496094 390.40625 L 602.527344 393.964844 L 613.558594 396.410156 L 622.246094 397.730469 L 630.9375 398.648438 L 650.726562 399.726562 L 670.515625 400.035156 L 672.734375 400.042969 L 674.953125 400.046875 "/>
<path fill="none" stroke-width="0.7" stroke-linecap="butt" stroke-linejoin="miter" stroke="rgb(0%, 0%, 0%)" stroke-opacity="1" stroke-miterlimit="1.154701" d="M 54.046875 419.5 L 54.046875 423.5 "/>
<path fill="none" stroke-width="0.7" stroke-linecap="butt" stroke-linejoin="miter" stroke="rgb(0%, 0%, 0%)" stroke-opacity="1" stroke-miterlimit="1.154701" d="M 209.273438 419.5 L 209.273438 423.5 "/>
<path fill="none" stroke-width="0.7" stroke-linecap="butt" stroke-linejoin="miter" stroke="rgb(0%, 0%, 0%)" stroke-opacity="1" stroke-miterlimit="1.154701" d="M 364.5 419.5 L 364.5 423.5 "/>
<path fill="none" stroke-width="0.7" stroke-linecap="butt" stroke-linejoin="miter" stroke="rgb(0%, 0%, 0%)" stroke-opacity="1" stroke-miterlimit="1.154701" d="M 519.726562 419.5 L 519.726562 423.5 "/>
<path fill="none" stroke-width="0.7" stroke-linecap="butt" stroke-linejoin="miter" stroke="rgb(0%, 0%, 0%)" stroke-opacity="1" stroke-miterlimit="1.154701" d="M 674.953125 419.5 L 674.953125 423.5 "/>
<path fill="none" stroke-width="0.7" stroke-linecap="butt" stroke-linejoin="miter" stroke="rgb(0%, 0%, 0%)" stroke-opacity="1" stroke-miterlimit="1.154701" d="M 22.5 400.046875 L 18.5 400.046875 "/>
<path fill="none" stroke-width="0.7" stroke-linecap="butt" stroke-linejoin="miter" stroke="rgb(0%, 0%, 0%)" stroke-opacity="1" stroke-miterlimit="1.154701" d="M 22.5 210.476562 L 18.5 210.476562 "/>
<path fill="none" stroke-width="0.7" stroke-linecap="butt" stroke-linejoin="miter" stroke="rgb(0%, 0%, 0%)" stroke-opacity="1" stroke-miterlimit="1.154701" d="M 22.5 20.910156 L 18.5 20.910156 "/>
<path fill="none" stroke-width="1.5" stroke-linecap="butt" stroke-linejoin="miter" stroke="rgb(0%, 44.705883%, 69.803923%)" stroke-opacity="1" stroke-miterlimit="2" d="M 637.800781 24 L 657.800781 24 "/>
<g fill="rgb(0%, 0%, 0%)" fill-opacity="1">
<use xlink:href="#glyph-0-5-23bbeef1" x="662.800001" y="27.060018"/>
</g>
<g fill="rgb(0%, 0%, 0%)" fill-opacity="1">
<use xlink:href="#glyph-0-6-23bbeef1" x="670.300001" y="27.060018"/>
</g>
<g fill="rgb(0%, 0%, 0%)" fill-opacity="1">
<use xlink:href="#glyph-0-7-23bbeef1" x="675.860001" y="27.060018"/>
</g>
<g fill="rgb(0%, 0%, 0%)" fill-opacity="1">
<use xlink:href="#glyph-0-7-23bbeef1" x="679.75" y="27.060018"/>
</g>
<g fill="rgb(0%, 0%, 0%)" fill-opacity="1">
<use xlink:href="#glyph-0-8-23bbeef1" x="683.64" y="27.060018"/>
</g>
<g fill="rgb(0%, 0%, 0%)" fill-opacity="1">
<use xlink:href="#glyph-0-9-23bbeef1" x="688.64" y="27.060018"/>
</g>
<g fill="rgb(0%, 0%, 0%)" fill-opacity="1">
<use xlink:href="#glyph-0-9-23bbeef1" x="691.42" y="27.060018"/>
</g>
<path fill="none" stroke-width="1" stroke-linecap="butt" stroke-linejoin="miter" stroke="rgb(0%, 0%, 0%)" stroke-opacity="1" stroke-miterlimit="1.154701" d="M 22.5 419 L 706.5 419 "/>
<path fill="none" stroke-width="1" stroke-linecap="butt" stroke-linejoin="miter" stroke="rgb(0%, 0%, 0%)" stroke-opacity="1" stroke-miterlimit="1.154701" d="M 23 419.5 L 23 1.5 "/>
<path fill="none" stroke-width="1" stroke-linecap="butt" stroke-linejoin="miter" stroke="rgb(0%, 0%, 0%)" stroke-opacity="1" stroke-miterlimit="1.154701" d="M 22.5 2 L 706.5 2 "/>
<path fill="none" stroke-width="1" stroke-linecap="butt" stroke-linejoin="miter" stroke="rgb(0%, 0%, 0%)" stroke-opacity="1" stroke-miterlimit="1.154701" d="M 706 419.5 L 706 1.5 "/>
</svg>
