<?xml version="1.0" encoding="UTF-8"?>
<svg xmlns="http://www.w3.org/2000/svg" xmlns:xlink="http://www.w3.org/1999/xlink" width="566" height="349" viewBox="0 0 566 349">
<defs>
<g>
<g id="glyph-0-0-1c599323">
<path d="M 7.21875 -2.5 C 7.21875 -2.609375 7.125 -2.703125 7.015625 -2.703125 L 0.765625 -2.703125 C 0.65625 -2.703125 0.5625 -2.609375 0.5625 -2.5 C 0.5625 -2.390625 0.65625 -2.296875 0.765625 -2.296875 L 7.015625 -2.296875 C 7.125 -2.296875 7.21875 -2.390625 7.21875 -2.5 Z M 7.21875 -2.5 "/>
</g>
<g id="glyph-0-1-1c599323">
<path d="M 4.1875 0 L 4.1875 -0.3125 L 3.875 -0.3125 C 2.96875 -0.3125 2.9375 -0.421875 2.9375 -0.796875 L 2.9375 -6.40625 C 2.9375 -6.640625 2.9375 -6.65625 2.703125 -6.65625 C 2.09375 -6.015625 1.203125 -6.015625 0.890625 -6.015625 L 0.890625 -5.703125 C 1.09375 -5.703125 1.6875 -5.703125 2.203125 -5.96875 L 2.203125 -0.796875 C 2.203125 -0.4375 2.171875 -0.3125 1.265625 -0.3125 L 0.953125 -0.3125 L 0.953125 0 C 1.296875 -0.03125 2.171875 -0.03125 2.5625 -0.03125 C 2.96875 -0.03125 3.84375 -0.03125 4.1875 0 Z M 4.1875 0 "/>
</g>
<g id="glyph-0-2-1c599323">
<path d="M 1.921875 -0.53125 C 1.921875 -0.8125 1.6875 -1.0625 1.390625 -1.0625 C 1.09375 -1.0625 0.859375 -0.8125 0.859375 -0.53125 C 0.859375 -0.234375 1.09375 0 1.390625 0 C 1.6875 0 1.921875 -0.234375 1.921875 -0.53125 Z M 1.921875 -0.53125 "/>
</g>
<g id="glyph-0-3-1c599323">
<path d="M 4.59375 -3.203125 C 4.59375 -4 4.546875 -4.796875 4.203125 -5.546875 C 3.734375 -6.5 2.921875 -6.65625 2.5 -6.65625 C 1.90625 -6.65625 1.171875 -6.40625 0.765625 -5.46875 C 0.4375 -4.78125 0.390625 -4 0.390625 -3.203125 C 0.390625 -2.453125 0.4375 -1.546875 0.84375 -0.796875 C 1.265625 0.015625 2 0.21875 2.484375 0.21875 C 3.03125 0.21875 3.796875 0.015625 4.234375 -0.9375 C 4.546875 -1.625 4.59375 -2.40625 4.59375 -3.203125 Z M 3.765625 -3.3125 C 3.765625 -2.5625 3.765625 -1.890625 3.65625 -1.25 C 3.515625 -0.296875 2.9375 0 2.484375 0 C 2.09375 0 1.515625 -0.25 1.328125 -1.203125 C 1.21875 -1.8125 1.21875 -2.734375 1.21875 -3.3125 C 1.21875 -3.953125 1.21875 -4.625 1.296875 -5.15625 C 1.484375 -6.34375 2.234375 -6.4375 2.484375 -6.4375 C 2.8125 -6.4375 3.484375 -6.265625 3.671875 -5.265625 C 3.765625 -4.703125 3.765625 -3.953125 3.765625 -3.3125 Z M 3.765625 -3.3125 "/>
</g>
<g id="glyph-0-4-1c599323">
<path d="M 4.484375 -2.015625 C 4.484375 -3.203125 3.671875 -4.203125 2.59375 -4.203125 C 2.109375 -4.203125 1.6875 -4.046875 1.3125 -3.6875 L 1.3125 -5.640625 C 1.515625 -5.578125 1.84375 -5.515625 2.171875 -5.515625 C 3.40625 -5.515625 4.09375 -6.421875 4.09375 -6.546875 C 4.09375 -6.609375 4.0625 -6.65625 4 -6.65625 C 4 -6.65625 3.96875 -6.65625 3.921875 -6.625 C 3.71875 -6.546875 3.234375 -6.34375 2.5625 -6.34375 C 2.15625 -6.34375 1.703125 -6.40625 1.234375 -6.625 C 1.15625 -6.65625 1.109375 -6.65625 1.109375 -6.65625 C 1.015625 -6.65625 1.015625 -6.5625 1.015625 -6.40625 L 1.015625 -3.453125 C 1.015625 -3.265625 1.015625 -3.1875 1.15625 -3.1875 C 1.21875 -3.1875 1.234375 -3.21875 1.28125 -3.28125 C 1.390625 -3.4375 1.765625 -3.984375 2.5625 -3.984375 C 3.09375 -3.984375 3.34375 -3.515625 3.421875 -3.34375 C 3.578125 -2.96875 3.59375 -2.578125 3.59375 -2.078125 C 3.59375 -1.734375 3.59375 -1.125 3.359375 -0.703125 C 3.125 -0.3125 2.75 -0.0625 2.296875 -0.0625 C 1.5625 -0.0625 0.984375 -0.59375 0.8125 -1.1875 C 0.84375 -1.171875 0.875 -1.15625 0.984375 -1.15625 C 1.3125 -1.15625 1.484375 -1.40625 1.484375 -1.65625 C 1.484375 -1.890625 1.3125 -2.140625 0.984375 -2.140625 C 0.84375 -2.140625 0.5 -2.0625 0.5 -1.609375 C 0.5 -0.75 1.1875 0.21875 2.3125 0.21875 C 3.46875 0.21875 4.484375 -0.734375 4.484375 -2.015625 Z M 4.484375 -2.015625 "/>
</g>
<g id="glyph-0-5-1c599323">
<path d="M 4.484375 -1.734375 L 4.234375 -1.734375 C 4.1875 -1.4375 4.125 -1 4.015625 -0.84375 C 3.953125 -0.765625 3.296875 -0.765625 3.0625 -0.765625 L 1.265625 -0.765625 L 2.328125 -1.796875 C 3.890625 -3.1875 4.484375 -3.71875 4.484375 -4.71875 C 4.484375 -5.859375 3.59375 -6.65625 2.375 -6.65625 C 1.234375 -6.65625 0.5 -5.734375 0.5 -4.84375 C 0.5 -4.296875 1 -4.296875 1.03125 -4.296875 C 1.203125 -4.296875 1.546875 -4.40625 1.546875 -4.8125 C 1.546875 -5.078125 1.375 -5.34375 1.015625 -5.34375 C 0.9375 -5.34375 0.921875 -5.34375 0.890625 -5.328125 C 1.125 -5.984375 1.65625 -6.34375 2.234375 -6.34375 C 3.15625 -6.34375 3.578125 -5.546875 3.578125 -4.71875 C 3.578125 -3.921875 3.078125 -3.125 2.53125 -2.515625 L 0.609375 -0.375 C 0.5 -0.265625 0.5 -0.234375 0.5 0 L 4.203125 0 Z M 4.484375 -1.734375 "/>
</g>
<g id="glyph-0-6-1c599323">
<path d="M 4.703125 -1.65625 L 4.703125 -1.953125 L 3.703125 -1.953125 L 3.703125 -6.515625 C 3.703125 -6.703125 3.703125 -6.765625 3.546875 -6.765625 C 3.453125 -6.765625 3.4375 -6.765625 3.34375 -6.65625 L 0.28125 -1.953125 L 0.28125 -1.65625 L 2.9375 -1.65625 L 2.9375 -0.78125 C 2.9375 -0.421875 2.921875 -0.3125 2.1875 -0.3125 L 1.96875 -0.3125 L 1.96875 0 C 2.375 -0.03125 2.90625 -0.03125 3.3125 -0.03125 C 3.734375 -0.03125 4.265625 -0.03125 4.6875 0 L 4.6875 -0.3125 L 4.46875 -0.3125 C 3.734375 -0.3125 3.703125 -0.421875 3.703125 -0.78125 L 3.703125 -1.65625 Z M 3 -1.953125 L 0.5625 -1.953125 L 3 -5.6875 Z M 3 -1.953125 "/>
</g>
<g id="glyph-0-7-1c599323">
<path d="M 4.5625 -2.046875 C 4.5625 -3.3125 3.6875 -4.265625 2.5625 -4.265625 C 1.890625 -4.265625 1.515625 -3.765625 1.3125 -3.28125 L 1.3125 -3.515625 C 1.3125 -6.046875 2.5625 -6.40625 3.0625 -6.40625 C 3.3125 -6.40625 3.734375 -6.34375 3.953125 -6.015625 C 3.796875 -6.015625 3.40625 -6.015625 3.40625 -5.5625 C 3.40625 -5.25 3.640625 -5.09375 3.859375 -5.09375 C 4.015625 -5.09375 4.3125 -5.1875 4.3125 -5.578125 C 4.3125 -6.1875 3.875 -6.65625 3.046875 -6.65625 C 1.765625 -6.65625 0.421875 -5.375 0.421875 -3.15625 C 0.421875 -0.484375 1.578125 0.21875 2.515625 0.21875 C 3.625 0.21875 4.5625 -0.71875 4.5625 -2.046875 Z M 3.671875 -2.046875 C 3.671875 -1.5625 3.671875 -1.0625 3.5 -0.703125 C 3.203125 -0.109375 2.734375 -0.0625 2.515625 -0.0625 C 1.875 -0.0625 1.578125 -0.65625 1.515625 -0.8125 C 1.34375 -1.28125 1.34375 -2.078125 1.34375 -2.265625 C 1.34375 -3.046875 1.65625 -4.046875 2.5625 -4.046875 C 2.71875 -4.046875 3.1875 -4.046875 3.484375 -3.421875 C 3.671875 -3.046875 3.671875 -2.546875 3.671875 -2.046875 Z M 3.671875 -2.046875 "/>
</g>
<g id="glyph-0-8-1c599323">
<path d="M 4.5625 -1.6875 C 4.5625 -2.046875 4.453125 -2.484375 4.078125 -2.90625 C 3.890625 -3.125 3.734375 -3.21875 3.09375 -3.625 C 3.8125 -3.984375 4.296875 -4.515625 4.296875 -5.171875 C 4.296875 -6.09375 3.40625 -6.65625 2.5 -6.65625 C 1.5 -6.65625 0.6875 -5.921875 0.6875 -4.984375 C 0.6875 -4.8125 0.703125 -4.359375 1.125 -3.890625 C 1.234375 -3.765625 1.609375 -3.515625 1.859375 -3.34375 C 1.28125 -3.0625 0.421875 -2.5 0.421875 -1.515625 C 0.421875 -0.453125 1.4375 0.21875 2.484375 0.21875 C 3.625 0.21875 4.5625 -0.609375 4.5625 -1.6875 Z M 3.859375 -5.171875 C 3.859375 -4.59375 3.46875 -4.125 2.875 -3.765625 L 1.625 -4.5625 C 1.171875 -4.875 1.125 -5.203125 1.125 -5.375 C 1.125 -5.984375 1.78125 -6.40625 2.484375 -6.40625 C 3.21875 -6.40625 3.859375 -5.890625 3.859375 -5.171875 Z M 4.0625 -1.3125 C 4.0625 -0.578125 3.3125 -0.0625 2.5 -0.0625 C 1.640625 -0.0625 0.921875 -0.6875 0.921875 -1.515625 C 0.921875 -2.09375 1.234375 -2.734375 2.09375 -3.203125 L 3.3125 -2.421875 C 3.59375 -2.234375 4.0625 -1.9375 4.0625 -1.3125 Z M 4.0625 -1.3125 "/>
</g>
<g id="glyph-1-0-1c599323">
<path d="M 7.15625 0 L 7.15625 -0.3125 L 6.921875 -0.3125 C 6.15625 -0.3125 6.125 -0.421875 6.125 -0.78125 L 6.125 -6.046875 C 6.125 -6.40625 6.15625 -6.515625 6.921875 -6.515625 L 7.15625 -6.515625 L 7.15625 -6.828125 C 6.8125 -6.796875 6.0625 -6.796875 5.6875 -6.796875 C 5.3125 -6.796875 4.5625 -6.796875 4.203125 -6.828125 L 4.203125 -6.515625 L 4.453125 -6.515625 C 5.21875 -6.515625 5.234375 -6.40625 5.234375 -6.046875 L 5.234375 -3.703125 L 2.25 -3.703125 L 2.25 -6.046875 C 2.25 -6.40625 2.265625 -6.515625 3.046875 -6.515625 L 3.28125 -6.515625 L 3.28125 -6.828125 C 2.9375 -6.796875 2.1875 -6.796875 1.8125 -6.796875 C 1.4375 -6.796875 0.6875 -6.796875 0.328125 -6.828125 L 0.328125 -6.515625 L 0.5625 -6.515625 C 1.34375 -6.515625 1.359375 -6.40625 1.359375 -6.046875 L 1.359375 -0.78125 C 1.359375 -0.421875 1.34375 -0.3125 0.5625 -0.3125 L 0.328125 -0.3125 L 0.328125 0 C 0.6875 -0.03125 1.421875 -0.03125 1.796875 -0.03125 C 2.1875 -0.03125 2.9375 -0.03125 3.28125 0 L 3.28125 -0.3125 L 3.046875 -0.3125 C 2.265625 -0.3125 2.25 -0.421875 2.25 -0.78125 L 2.25 -3.40625 L 5.234375 -3.40625 L 5.234375 -0.78125 C 5.234375 -0.421875 5.21875 -0.3125 4.453125 -0.3125 L 4.203125 -0.3125 L 4.203125 0 C 4.5625 -0.03125 5.296875 -0.03125 5.6875 -0.03125 C 6.0625 -0.03125 6.8125 -0.03125 7.15625 0 Z M 7.15625 0 "/>
</g>
<g id="glyph-1-1-1c599323">
<path d="M 4.828125 -0.890625 L 4.828125 -1.453125 L 4.578125 -1.453125 L 4.578125 -0.890625 C 4.578125 -0.3125 4.328125 -0.25 4.21875 -0.25 C 3.890625 -0.25 3.84375 -0.703125 3.84375 -0.75 L 3.84375 -2.75 C 3.84375 -3.171875 3.84375 -3.5625 3.484375 -3.9375 C 3.09375 -4.3125 2.59375 -4.484375 2.125 -4.484375 C 1.296875 -4.484375 0.609375 -4.015625 0.609375 -3.34375 C 0.609375 -3.046875 0.8125 -2.875 1.0625 -2.875 C 1.34375 -2.875 1.53125 -3.078125 1.53125 -3.34375 C 1.53125 -3.453125 1.484375 -3.796875 1.015625 -3.796875 C 1.296875 -4.15625 1.78125 -4.265625 2.09375 -4.265625 C 2.59375 -4.265625 3.15625 -3.875 3.15625 -2.984375 L 3.15625 -2.609375 C 2.65625 -2.578125 1.953125 -2.546875 1.3125 -2.25 C 0.5625 -1.90625 0.3125 -1.390625 0.3125 -0.953125 C 0.3125 -0.140625 1.296875 0.109375 1.921875 0.109375 C 2.578125 0.109375 3.046875 -0.296875 3.234375 -0.765625 C 3.265625 -0.359375 3.546875 0.0625 4.015625 0.0625 C 4.21875 0.0625 4.828125 -0.078125 4.828125 -0.890625 Z M 3.15625 -1.40625 C 3.15625 -0.453125 2.4375 -0.109375 1.984375 -0.109375 C 1.5 -0.109375 1.09375 -0.453125 1.09375 -0.953125 C 1.09375 -1.515625 1.515625 -2.34375 3.15625 -2.40625 Z M 3.15625 -1.40625 "/>
</g>
<g id="glyph-1-2-1c599323">
<path d="M 8.125 0 L 8.125 -0.3125 C 7.609375 -0.3125 7.359375 -0.3125 7.34375 -0.609375 L 7.34375 -2.515625 C 7.34375 -3.375 7.34375 -3.6875 7.046875 -4.046875 C 6.90625 -4.21875 6.5625 -4.421875 5.984375 -4.421875 C 5.15625 -4.421875 4.703125 -3.8125 4.546875 -3.4375 C 4.40625 -4.3125 3.65625 -4.421875 3.203125 -4.421875 C 2.484375 -4.421875 2.015625 -3.984375 1.734375 -3.375 L 1.734375 -4.421875 L 0.3125 -4.3125 L 0.3125 -4 C 1.015625 -4 1.09375 -3.9375 1.09375 -3.4375 L 1.09375 -0.765625 C 1.09375 -0.3125 0.984375 -0.3125 0.3125 -0.3125 L 0.3125 0 L 1.453125 -0.03125 L 2.5625 0 L 2.5625 -0.3125 C 1.90625 -0.3125 1.796875 -0.3125 1.796875 -0.765625 L 1.796875 -2.59375 C 1.796875 -3.640625 2.5 -4.203125 3.140625 -4.203125 C 3.765625 -4.203125 3.875 -3.65625 3.875 -3.09375 L 3.875 -0.765625 C 3.875 -0.3125 3.765625 -0.3125 3.09375 -0.3125 L 3.09375 0 L 4.234375 -0.03125 L 5.34375 0 L 5.34375 -0.3125 C 4.6875 -0.3125 4.5625 -0.3125 4.5625 -0.765625 L 4.5625 -2.59375 C 4.5625 -3.640625 5.28125 -4.203125 5.921875 -4.203125 C 6.546875 -4.203125 6.65625 -3.65625 6.65625 -3.09375 L 6.65625 -0.765625 C 6.65625 -0.3125 6.546875 -0.3125 5.875 -0.3125 L 5.875 0 L 7.015625 -0.03125 Z M 8.125 0 "/>
</g>
<g id="glyph-1-3-1c599323">
<path d="M 2.46875 0 L 2.46875 -0.3125 C 1.8125 -0.3125 1.765625 -0.359375 1.765625 -0.75 L 1.765625 -4.421875 L 0.375 -4.3125 L 0.375 -4 C 1.015625 -4 1.109375 -3.9375 1.109375 -3.453125 L 1.109375 -0.765625 C 1.109375 -0.3125 1 -0.3125 0.328125 -0.3125 L 0.328125 0 L 1.4375 -0.03125 C 1.78125 -0.03125 2.125 -0.015625 2.46875 0 Z M 1.921875 -6.046875 C 1.921875 -6.3125 1.6875 -6.5625 1.390625 -6.5625 C 1.046875 -6.5625 0.84375 -6.296875 0.84375 -6.046875 C 0.84375 -5.765625 1.078125 -5.515625 1.375 -5.515625 C 1.71875 -5.515625 1.921875 -5.796875 1.921875 -6.046875 Z M 1.921875 -6.046875 "/>
</g>
<g id="glyph-1-4-1c599323">
<path d="M 5.34375 0 L 5.34375 -0.3125 C 4.828125 -0.3125 4.578125 -0.3125 4.5625 -0.609375 L 4.5625 -2.515625 C 4.5625 -3.375 4.5625 -3.6875 4.265625 -4.046875 C 4.125 -4.21875 3.796875 -4.421875 3.203125 -4.421875 C 2.484375 -4.421875 2.015625 -3.984375 1.734375 -3.375 L 1.734375 -4.421875 L 0.3125 -4.3125 L 0.3125 -4 C 1.015625 -4 1.09375 -3.9375 1.09375 -3.4375 L 1.09375 -0.765625 C 1.09375 -0.3125 0.984375 -0.3125 0.3125 -0.3125 L 0.3125 0 L 1.453125 -0.03125 L 2.5625 0 L 2.5625 -0.3125 C 1.90625 -0.3125 1.796875 -0.3125 1.796875 -0.765625 L 1.796875 -2.59375 C 1.796875 -3.640625 2.5 -4.203125 3.140625 -4.203125 C 3.765625 -4.203125 3.875 -3.65625 3.875 -3.09375 L 3.875 -0.765625 C 3.875 -0.3125 3.765625 -0.3125 3.09375 -0.3125 L 3.09375 0 L 4.234375 -0.03125 Z M 5.34375 0 "/>
</g>
<g id="glyph-1-5-1c599323">
<path d="M 4.84375 -4.046875 C 4.84375 -4.203125 4.734375 -4.53125 4.34375 -4.53125 C 4.140625 -4.53125 3.703125 -4.46875 3.28125 -4.0625 C 2.859375 -4.390625 2.4375 -4.421875 2.21875 -4.421875 C 1.296875 -4.421875 0.59375 -3.734375 0.59375 -2.953125 C 0.59375 -2.515625 0.8125 -2.140625 1.0625 -1.9375 C 0.9375 -1.78125 0.765625 -1.453125 0.765625 -1.09375 C 0.765625 -0.796875 0.890625 -0.40625 1.203125 -0.203125 C 0.59375 -0.046875 0.28125 0.390625 0.28125 0.796875 C 0.28125 1.515625 1.265625 2.0625 2.484375 2.0625 C 3.671875 2.0625 4.703125 1.546875 4.703125 0.765625 C 4.703125 0.421875 4.5625 -0.09375 4.0625 -0.375 C 3.53125 -0.65625 2.953125 -0.65625 2.34375 -0.65625 C 2.09375 -0.65625 1.65625 -0.65625 1.59375 -0.65625 C 1.265625 -0.703125 1.0625 -1.015625 1.0625 -1.328125 C 1.0625 -1.375 1.0625 -1.59375 1.234375 -1.796875 C 1.625 -1.515625 2.03125 -1.484375 2.21875 -1.484375 C 3.15625 -1.484375 3.84375 -2.1875 3.84375 -2.953125 C 3.84375 -3.3125 3.6875 -3.6875 3.4375 -3.921875 C 3.796875 -4.265625 4.15625 -4.3125 4.328125 -4.3125 C 4.328125 -4.3125 4.40625 -4.3125 4.4375 -4.296875 C 4.3125 -4.265625 4.265625 -4.15625 4.265625 -4.03125 C 4.265625 -3.859375 4.40625 -3.734375 4.5625 -3.734375 C 4.65625 -3.734375 4.84375 -3.8125 4.84375 -4.046875 Z M 3.09375 -2.953125 C 3.09375 -2.6875 3.078125 -2.375 2.9375 -2.125 C 2.84375 -2 2.625 -1.71875 2.21875 -1.71875 C 1.34375 -1.71875 1.34375 -2.71875 1.34375 -2.953125 C 1.34375 -3.21875 1.359375 -3.546875 1.515625 -3.796875 C 1.59375 -3.90625 1.8125 -4.1875 2.21875 -4.1875 C 3.09375 -4.1875 3.09375 -3.1875 3.09375 -2.953125 Z M 4.1875 0.796875 C 4.1875 1.328125 3.484375 1.828125 2.5 1.828125 C 1.484375 1.828125 0.796875 1.3125 0.796875 0.796875 C 0.796875 0.328125 1.1875 -0.046875 1.625 -0.0625 L 2.203125 -0.0625 C 3.0625 -0.0625 4.1875 -0.0625 4.1875 0.796875 Z M 4.1875 0.796875 "/>
</g>
</g>
</defs>
<path fill-rule="nonzero" fill="rgb(100%, 100%, 100%)" fill-opacity="1" d="M 23 331 L 564 331 L 564 2 L 23 2 Z M 23 331 "/>
<g fill="rgb(0%, 0%, 0%)" fill-opacity="1">
<use xlink:href="#glyph-0-0-1c599323" x="37.310909" y="346.059999"/>
</g>
<g fill="rgb(0%, 0%, 0%)" fill-opacity="1">
<use xlink:href="#glyph-0-1-1c599323" x="45.090908" y="346.059999"/>
</g>
<g fill="rgb(0%, 0%, 0%)" fill-opacity="1">
<use xlink:href="#glyph-0-2-1c599323" x="50.090908" y="346.059999"/>
</g>
<g fill="rgb(0%, 0%, 0%)" fill-opacity="1">
<use xlink:href="#glyph-0-3-1c599323" x="52.870908" y="346.059999"/>
</g>
<g fill="rgb(0%, 0%, 0%)" fill-opacity="1">
<use xlink:href="#glyph-0-0-1c599323" x="160.265457" y="346.059999"/>
</g>
<g fill="rgb(0%, 0%, 0%)" fill-opacity="1">
<use xlink:href="#glyph-0-3-1c599323" x="168.045457" y="346.059999"/>
</g>
<g fill="rgb(0%, 0%, 0%)" fill-opacity="1">
<use xlink:href="#glyph-0-2-1c599323" x="173.045457" y="346.059999"/>
</g>
<g fill="rgb(0%, 0%, 0%)" fill-opacity="1">
<use xlink:href="#glyph-0-4-1c599323" x="175.825457" y="346.059999"/>
</g>
<g fill="rgb(0%, 0%, 0%)" fill-opacity="1">
<use xlink:href="#glyph-0-3-1c599323" x="287.110002" y="346.059999"/>
</g>
<g fill="rgb(0%, 0%, 0%)" fill-opacity="1">
<use xlink:href="#glyph-0-2-1c599323" x="292.110002" y="346.059999"/>
</g>
<g fill="rgb(0%, 0%, 0%)" fill-opacity="1">
<use xlink:href="#glyph-0-3-1c599323" x="294.890002" y="346.059999"/>
</g>
<g fill="rgb(0%, 0%, 0%)" fill-opacity="1">
<use xlink:href="#glyph-0-3-1c599323" x="410.064563" y="346.059999"/>
</g>
<g fill="rgb(0%, 0%, 0%)" fill-opacity="1">
<use xlink:href="#glyph-0-2-1c599323" x="415.064563" y="346.059999"/>
</g>
<g fill="rgb(0%, 0%, 0%)" fill-opacity="1">
<use xlink:href="#glyph-0-4-1c599323" x="417.844562" y="346.059999"/>
</g>
<g fill="rgb(0%, 0%, 0%)" fill-opacity="1">
<use xlink:href="#glyph-0-1-1c599323" x="533.019123" y="346.059999"/>
</g>
<g fill="rgb(0%, 0%, 0%)" fill-opacity="1">
<use xlink:href="#glyph-0-2-1c599323" x="538.019123" y="346.059999"/>
</g>
<g fill="rgb(0%, 0%, 0%)" fill-opacity="1">
<use xlink:href="#glyph-0-3-1c599323" x="540.799123" y="346.059999"/>
</g>
<g fill="rgb(0%, 0%, 0%)" fill-opacity="1">
<use xlink:href="#glyph-0-3-1c599323" x="1.22" y="282.073265"/>
</g>
<g fill="rgb(0%, 0%, 0%)" fill-opacity="1">
<use xlink:href="#glyph-0-2-1c599323" x="6.22" y="282.073265"/>
</g>
<g fill="rgb(0%, 0%, 0%)" fill-opacity="1">
<use xlink:href="#glyph-0-5-1c599323" x="9" y="282.073265"/>
</g>
<g fill="rgb(0%, 0%, 0%)" fill-opacity="1">
<use xlink:href="#glyph-0-3-1c599323" x="1.22" y="216.554792"/>
</g>
<g fill="rgb(0%, 0%, 0%)" fill-opacity="1">
<use xlink:href="#glyph-0-2-1c599323" x="6.22" y="216.554792"/>
</g>
<g fill="rgb(0%, 0%, 0%)" fill-opacity="1">
<use xlink:href="#glyph-0-6-1c599323" x="9" y="216.554792"/>
</g>
<g fill="rgb(0%, 0%, 0%)" fill-opacity="1">
<use xlink:href="#glyph-0-3-1c599323" x="1.22" y="151.036311"/>
</g>
<g fill="rgb(0%, 0%, 0%)" fill-opacity="1">
<use xlink:href="#glyph-0-2-1c599323" x="6.22" y="151.036311"/>
</g>
<g fill="rgb(0%, 0%, 0%)" fill-opacity="1">
<use xlink:href="#glyph-0-7-1c599323" x="9" y="151.036311"/>
</g>
<g fill="rgb(0%, 0%, 0%)" fill-opacity="1">
<use xlink:href="#glyph-0-3-1c599323" x="1.22" y="85.517815"/>
</g>
<g fill="rgb(0%, 0%, 0%)" fill-opacity="1">
<use xlink:href="#glyph-0-2-1c599323" x="6.22" y="85.517815"/>
</g>
<g fill="rgb(0%, 0%, 0%)" fill-opacity="1">
<use xlink:href="#glyph-0-8-1c599323" x="9" y="85.517815"/>
</g>
<g fill="rgb(0%, 0%, 0%)" fill-opacity="1">
<use xlink:href="#glyph-0-1-1c599323" x="1.22" y="19.999349"/>
</g>
<g fill="rgb(0%, 0%, 0%)" fill-opacity="1">
<use xlink:href="#glyph-0-2-1c599323" x="6.22" y="19.999349"/>
</g>
<g fill="rgb(0%, 0%, 0%)" fill-opacity="1">
<use xlink:href="#glyph-0-3-1c599323" x="9" y="19.999349"/>
</g>
<path fill="none" stroke-width="1.5" stroke-linecap="butt" stroke-linejoin="miter" stroke="rgb(0%, 44.705883%, 69.803923%)" stroke-opacity="1" stroke-miterlimit="2" d="M 47.589844 316.046875 L 48.859375 316.027344 L 50.128906 315.96875 L 51.398438 315.867188 L 52.667969 315.730469 L 56.386719 315.101562 L 60.101562 314.140625 L 63.820312 312.84375 L 67.539062 311.214844 L 71.253906 309.261719 L 74.972656 306.988281 L 78.6875 304.398438 L 82.40625 301.496094 L 85.863281 298.519531 L 89.324219 295.289062 L 92.78125 291.804688 L 96.238281 288.078125 L 100.875 282.710938 L 105.511719 276.9375 L 110.148438 270.773438 L 114.78125 264.246094 L 122.445312 252.71875 L 130.105469 240.367188 L 137.230469 228.242188 L 144.351562 215.609375 L 162.238281 182.332031 L 178.28125 151.734375 L 187.464844 134.417969 L 196.648438 117.542969 L 203.511719 105.355469 L 210.375 93.636719 L 214.765625 86.429688 L 219.152344 79.476562 L 223.542969 72.796875 L 227.933594 66.410156 L 231.9375 60.855469 L 235.945312 55.578125 L 239.949219 50.589844 L 243.957031 45.90625 L 248.515625 40.960938 L 253.078125 36.441406 L 257.636719 32.363281 L 262.195312 28.742188 L 265.808594 26.199219 L 269.425781 23.957031 L 273.039062 22.019531 L 276.652344 20.390625 L 281.144531 18.796875 L 285.632812 17.695312 L 290.125 17.078125 L 294.617188 16.953125 L 298.054688 17.191406 L 301.492188 17.71875 L 304.933594 18.53125 L 308.371094 19.628906 L 313.21875 21.660156 L 318.070312 24.246094 L 322.917969 27.375 L 327.765625 31.042969 L 331.390625 34.121094 L 335.011719 37.480469 L 338.636719 41.121094 L 342.257812 45.027344 L 346.378906 49.785156 L 350.5 54.867188 L 354.621094 60.261719 L 358.742188 65.945312 L 362.820312 71.851562 L 366.902344 78.015625 L 370.980469 84.417969 L 375.0625 91.042969 L 384.042969 106.320312 L 393.019531 122.386719 L 399.878906 135.058594 L 406.738281 147.972656 L 424.046875 180.972656 L 440.054688 210.902344 L 444.183594 218.371094 L 448.3125 225.691406 L 452.4375 232.847656 L 456.566406 239.820312 L 460.75 246.679688 L 464.933594 253.308594 L 469.117188 259.691406 L 473.300781 265.804688 L 477.671875 271.886719 L 482.039062 277.644531 L 486.40625 283.050781 L 490.777344 288.097656 L 494.21875 291.804688 L 497.660156 295.273438 L 501.101562 298.488281 L 504.542969 301.453125 L 508.460938 304.507812 L 512.378906 307.21875 L 516.296875 309.574219 L 520.21875 311.574219 L 524.136719 313.207031 L 528.054688 314.476562 L 531.972656 315.371094 L 535.890625 315.894531 L 536.769531 315.960938 L 537.652344 316.007812 L 538.53125 316.035156 L 539.410156 316.046875 "/>
<path fill="none" stroke-width="0.7" stroke-linecap="butt" stroke-linejoin="miter" stroke="rgb(0%, 0%, 0%)" stroke-opacity="1" stroke-miterlimit="1.154701" d="M 47.589844 331.5 L 47.589844 335.5 "/>
<path fill="none" stroke-width="0.7" stroke-linecap="butt" stroke-linejoin="miter" stroke="rgb(0%, 0%, 0%)" stroke-opacity="1" stroke-miterlimit="1.154701" d="M 170.546875 331.5 L 170.546875 335.5 "/>
<path fill="none" stroke-width="0.7" stroke-linecap="butt" stroke-linejoin="miter" stroke="rgb(0%, 0%, 0%)" stroke-opacity="1" stroke-miterlimit="1.154701" d="M 293.5 331.5 L 293.5 335.5 "/>
<path fill="none" stroke-width="0.7" stroke-linecap="butt" stroke-linejoin="miter" stroke="rgb(0%, 0%, 0%)" stroke-opacity="1" stroke-miterlimit="1.154701" d="M 416.453125 331.5 L 416.453125 335.5 "/>
<path fill="none" stroke-width="0.7" stroke-linecap="butt" stroke-linejoin="miter" stroke="rgb(0%, 0%, 0%)" stroke-opacity="1" stroke-miterlimit="1.154701" d="M 539.410156 331.5 L 539.410156 335.5 "/>
<path fill="none" stroke-width="0.7" stroke-linecap="butt" stroke-linejoin="miter" stroke="rgb(0%, 0%, 0%)" stroke-opacity="1" stroke-miterlimit="1.154701" d="M 22.5 279.011719 L 18.5 279.011719 "/>
<path fill="none" stroke-width="0.7" stroke-linecap="butt" stroke-linejoin="miter" stroke="rgb(0%, 0%, 0%)" stroke-opacity="1" stroke-miterlimit="1.154701" d="M 22.5 213.496094 L 18.5 213.496094 "/>
<path fill="none" stroke-width="0.7" stroke-linecap="butt" stroke-linejoin="miter" stroke="rgb(0%, 0%, 0%)" stroke-opacity="1" stroke-miterlimit="1.154701" d="M 22.5 147.976562 L 18.5 147.976562 "/>
<path fill="none" stroke-width="0.7" stroke-linecap="butt" stroke-linejoin="miter" stroke="rgb(0%, 0%, 0%)" stroke-opacity="1" stroke-miterlimit="1.154701" d="M 22.5 82.457031 L 18.5 82.457031 "/>
<path fill="none" stroke-width="0.7" stroke-linecap="butt" stroke-linejoin="miter" stroke="rgb(0%, 0%, 0%)" stroke-opacity="1" stroke-miterlimit="1.154701" d="M 22.5 16.9375 L 18.5 16.9375 "/>
<path fill="none" stroke-width="1.5" stroke-linecap="butt" stroke-linejoin="miter" stroke="rgb(0%, 44.705883%, 69.803923%)" stroke-opacity="1" stroke-miterlimit="2" d="M 484.25 24 L 504.25 24 "/>
<g fill="rgb(0%, 0%, 0%)" fill-opacity="1">
<use xlink:href="#glyph-1-0-1c599323" x="509.250004" y="27.059988"/>
</g>
<g fill="rgb(0%, 0%, 0%)" fill-opacity="1">
<use xlink:href="#glyph-1-1-1c599323" x="516.750004" y="27.059988"/>
</g>
<g fill="rgb(0%, 0%, 0%)" fill-opacity="1">
<use xlink:href="#glyph-1-2-1c599323" x="521.750004" y="27.059988"/>
</g>
<g fill="rgb(0%, 0%, 0%)" fill-opacity="1">
<use xlink:href="#glyph-1-2-1c599323" x="530.080004" y="27.059988"/>
</g>
<g fill="rgb(0%, 0%, 0%)" fill-opacity="1">
<use xlink:href="#glyph-1-3-1c599323" x="538.410004" y="27.059988"/>
</g>
<g fill="rgb(0%, 0%, 0%)" fill-opacity="1">
<use xlink:href="#glyph-1-4-1c599323" x="541.190005" y="27.059988"/>
</g>
<g fill="rgb(0%, 0%, 0%)" fill-opacity="1">
<use xlink:href="#glyph-1-5-1c599323" x="546.750004" y="27.059988"/>
</g>
<path fill="none" stroke-width="1" stroke-linecap="butt" stroke-linejoin="miter" stroke="rgb(0%, 0%, 0%)" stroke-opacity="1" stroke-miterlimit="1.154701" d="M 22.5 331 L 564.5 331 "/>
<path fill="none" stroke-width="1" stroke-linecap="butt" stroke-linejoin="miter" stroke="rgb(0%, 0%, 0%)" stroke-opacity="1" stroke-miterlimit="1.154701" d="M 23 331.5 L 23 1.5 "/>
<path fill="none" stroke-width="1" stroke-linecap="butt" stroke-linejoin="miter" stroke="rgb(0%, 0%, 0%)" stroke-opacity="1" stroke-miterlimit="1.154701" d="M 22.5 2 L 564.5 2 "/>
<path fill="none" stroke-width="1" stroke-linecap="butt" stroke-linejoin="miter" stroke="rgb(0%, 0%, 0%)" stroke-opacity="1" stroke-miterlimit="1.154701" d="M 564 331.5 L 564 1.5 "/>
</svg>
