<?xml version="1.0" encoding="UTF-8"?>
<svg xmlns="http://www.w3.org/2000/svg" xmlns:xlink="http://www.w3.org/1999/xlink" width="566" height="349" viewBox="0 0 566 349">
<defs>
<g>
<g id="glyph-0-0-4843af19">
<path d="M 7.21875 -2.5 C 7.21875 -2.609375 7.125 -2.703125 7.015625 -2.703125 L 0.765625 -2.703125 C 0.65625 -2.703125 0.5625 -2.609375 0.5625 -2.5 C 0.5625 -2.390625 0.65625 -2.296875 0.765625 -2.296875 L 7.015625 -2.296875 C 7.125 -2.296875 7.21875 -2.390625 7.21875 -2.5 Z M 7.21875 -2.5 "/>
</g>
<g id="glyph-0-1-4843af19">
<path d="M 4.1875 0 L 4.1875 -0.3125 L 3.875 -0.3125 C 2.96875 -0.3125 2.9375 -0.421875 2.9375 -0.796875 L 2.9375 -6.40625 C 2.9375 -6.640625 2.9375 -6.65625 2.703125 -6.65625 C 2.09375 -6.015625 1.203125 -6.015625 0.890625 -6.015625 L 0.890625 -5.703125 C 1.09375 -5.703125 1.6875 -5.703125 2.203125 -5.96875 L 2.203125 -0.796875 C 2.203125 -0.4375 2.171875 -0.3125 1.265625 -0.3125 L 0.953125 -0.3125 L 0.953125 0 C 1.296875 -0.03125 2.171875 -0.03125 2.5625 -0.03125 C 2.96875 -0.03125 3.84375 -0.03125 4.1875 0 Z M 4.1875 0 "/>
</g>
<g id="glyph-0-2-4843af19">
<path d="M 1.921875 -0.53125 C 1.921875 -0.8125 1.6875 -1.0625 1.390625 -1.0625 C 1.09375 -1.0625 0.859375 -0.8125 0.859375 -0.53125 C 0.859375 -0.234375 1.09375 0 1.390625 0 C 1.6875 0 1.921875 -0.234375 1.921875 -0.53125 Z M 1.921875 -0.53125 "/>
</g>
<g id="glyph-0-3-4843af19">
<path d="M 4.59375 -3.203125 C 4.59375 -4 4.546875 -4.796875 4.203125 -5.546875 C 3.734375 -6.5 2.921875 -6.65625 2.5 -6.65625 C 1.90625 -6.65625 1.171875 -6.40625 0.765625 -5.46875 C 0.4375 -4.78125 0.390625 -4 0.390625 -3.203125 C 0.390625 -2.453125 0.4375 -1.546875 0.84375 -0.796875 C 1.265625 0.015625 2 0.21875 2.484375 0.21875 C 3.03125 0.21875 3.796875 0.015625 4.234375 -0.9375 C 4.546875 -1.625 4.59375 -2.40625 4.59375 -3.203125 Z M 3.765625 -3.3125 C 3.765625 -2.5625 3.765625 -1.890625 3.65625 -1.25 C 3.515625 -0.296875 2.9375 0 2.484375 0 C 2.09375 0 1.515625 -0.25 1.328125 -1.203125 C 1.21875 -1.8125 1.21875 -2.734375 1.21875 -3.3125 C 1.21875 -3.953125 1.21875 -4.625 1.296875 -5.15625 C 1.484375 -6.34375 2.234375 -6.4375 2.484375 -6.4375 C 2.8125 -6.4375 3.484375 -6.265625 3.671875 -5.265625 C 3.765625 -4.703125 3.765625 -3.953125 3.765625 -3.3125 Z M 3.765625 -3.3125 "/>
</g>
<g id="glyph-0-4-4843af19">
<path d="M 4.484375 -2.015625 C 4.484375 -3.203125 3.671875 -4.203125 2.59375 -4.203125 C 2.109375 -4.203125 1.6875 -4.046875 1.3125 -3.6875 L 1.3125 -5.640625 C 1.515625 -5.578125 1.84375 -5.515625 2.171875 -5.515625 C 3.40625 -5.515625 4.09375 -6.421875 4.09375 -6.546875 C 4.09375 -6.609375 4.0625 -6.65625 4 -6.65625 C 4 -6.65625 3.96875 -6.65625 3.921875 -6.625 C 3.71875 -6.546875 3.234375 -6.34375 2.5625 -6.34375 C 2.15625 -6.34375 1.703125 -6.40625 1.234375 -6.625 C 1.15625 -6.65625 1.109375 -6.65625 1.109375 -6.65625 C 1.015625 -6.65625 1.015625 -6.5625 1.015625 -6.40625 L 1.015625 -3.453125 C 1.015625 -3.265625 1.015625 -3.1875 1.15625 -3.1875 C 1.21875 -3.1875 1.234375 -3.21875 1.28125 -3.28125 C 1.390625 -3.4375 1.765625 -3.984375 2.5625 -3.984375 C 3.09375 -3.984375 3.34375 -3.515625 3.421875 -3.34375 C 3.578125 -2.96875 3.59375 -2.578125 3.59375 -2.078125 C 3.59375 -1.734375 3.59375 -1.125 3.359375 -0.703125 C 3.125 -0.3125 2.75 -0.0625 2.296875 -0.0625 C 1.5625 -0.0625 0.984375 -0.59375 0.8125 -1.1875 C 0.84375 -1.171875 0.875 -1.15625 0.984375 -1.15625 C 1.3125 -1.15625 1.484375 -1.40625 1.484375 -1.65625 C 1.484375 -1.890625 1.3125 -2.140625 0.984375 -2.140625 C 0.84375 -2.140625 0.5 -2.0625 0.5 -1.609375 C 0.5 -0.75 1.1875 0.21875 2.3125 0.21875 C 3.46875 0.21875 4.484375 -0.734375 4.484375 -2.015625 Z M 4.484375 -2.015625 "/>
</g>
<g id="glyph-1-0-4843af19">
<path d="M 7.15625 -6.515625 L 7.15625 -6.828125 L 5.984375 -6.796875 L 4.8125 -6.828125 L 4.8125 -6.515625 C 5.84375 -6.515625 5.84375 -6.046875 5.84375 -5.78125 L 5.84375 -1.515625 L 2.3125 -6.703125 C 2.234375 -6.8125 2.21875 -6.828125 2.03125 -6.828125 L 0.328125 -6.828125 L 0.328125 -6.515625 L 0.625 -6.515625 C 0.765625 -6.515625 0.96875 -6.515625 1.125 -6.5 C 1.34375 -6.46875 1.359375 -6.453125 1.359375 -6.265625 L 1.359375 -1.046875 C 1.359375 -0.78125 1.359375 -0.3125 0.328125 -0.3125 L 0.328125 0 L 1.5 -0.03125 L 2.671875 0 L 2.671875 -0.3125 C 1.640625 -0.3125 1.640625 -0.78125 1.640625 -1.046875 L 1.640625 -6.25 C 1.6875 -6.203125 1.703125 -6.1875 1.734375 -6.125 L 5.8125 -0.125 C 5.90625 -0.015625 5.921875 0 5.984375 0 C 6.125 0 6.125 -0.0625 6.125 -0.265625 L 6.125 -5.78125 C 6.125 -6.046875 6.125 -6.515625 7.15625 -6.515625 Z M 7.15625 -6.515625 "/>
</g>
<g id="glyph-1-1-4843af19">
<path d="M 5.34375 0 L 5.34375 -0.3125 C 4.65625 -0.3125 4.5625 -0.375 4.5625 -0.875 L 4.5625 -4.421875 L 3.09375 -4.3125 L 3.09375 -4 C 3.796875 -4 3.875 -3.9375 3.875 -3.4375 L 3.875 -1.65625 C 3.875 -0.796875 3.40625 -0.109375 2.671875 -0.109375 C 1.828125 -0.109375 1.796875 -0.578125 1.796875 -1.09375 L 1.796875 -4.421875 L 0.3125 -4.3125 L 0.3125 -4 C 1.09375 -4 1.09375 -3.96875 1.09375 -3.078125 L 1.09375 -1.578125 C 1.09375 -0.796875 1.09375 0.109375 2.625 0.109375 C 3.1875 0.109375 3.625 -0.171875 3.90625 -0.796875 L 3.90625 0.109375 Z M 5.34375 0 "/>
</g>
<g id="glyph-1-2-4843af19">
<path d="M 3.3125 -1.234375 L 3.3125 -1.8125 L 3.0625 -1.8125 L 3.0625 -1.265625 C 3.0625 -0.515625 2.765625 -0.140625 2.40625 -0.140625 C 1.734375 -0.140625 1.734375 -1.046875 1.734375 -1.21875 L 1.734375 -4 L 3.15625 -4 L 3.15625 -4.3125 L 1.734375 -4.3125 L 1.734375 -6.15625 L 1.484375 -6.15625 C 1.46875 -5.328125 1.171875 -4.265625 0.1875 -4.21875 L 0.1875 -4 L 1.046875 -4 L 1.046875 -1.234375 C 1.046875 -0.015625 1.96875 0.109375 2.328125 0.109375 C 3.046875 0.109375 3.3125 -0.59375 3.3125 -1.234375 Z M 3.3125 -1.234375 "/>
</g>
<g id="glyph-1-3-4843af19">
<path d="M 4.828125 -0.890625 L 4.828125 -1.453125 L 4.578125 -1.453125 L 4.578125 -0.890625 C 4.578125 -0.3125 4.328125 -0.25 4.21875 -0.25 C 3.890625 -0.25 3.84375 -0.703125 3.84375 -0.75 L 3.84375 -2.75 C 3.84375 -3.171875 3.84375 -3.5625 3.484375 -3.9375 C 3.09375 -4.3125 2.59375 -4.484375 2.125 -4.484375 C 1.296875 -4.484375 0.609375 -4.015625 0.609375 -3.34375 C 0.609375 -3.046875 0.8125 -2.875 1.0625 -2.875 C 1.34375 -2.875 1.53125 -3.078125 1.53125 -3.34375 C 1.53125 -3.453125 1.484375 -3.796875 1.015625 -3.796875 C 1.296875 -4.15625 1.78125 -4.265625 2.09375 -4.265625 C 2.59375 -4.265625 3.15625 -3.875 3.15625 -2.984375 L 3.15625 -2.609375 C 2.65625 -2.578125 1.953125 -2.546875 1.3125 -2.25 C 0.5625 -1.90625 0.3125 -1.390625 0.3125 -0.953125 C 0.3125 -0.140625 1.296875 0.109375 1.921875 0.109375 C 2.578125 0.109375 3.046875 -0.296875 3.234375 -0.765625 C 3.265625 -0.359375 3.546875 0.0625 4.015625 0.0625 C 4.21875 0.0625 4.828125 -0.078125 4.828125 -0.890625 Z M 3.15625 -1.40625 C 3.15625 -0.453125 2.4375 -0.109375 1.984375 -0.109375 C 1.5 -0.109375 1.09375 -0.453125 1.09375 -0.953125 C 1.09375 -1.515625 1.515625 -2.34375 3.15625 -2.40625 Z M 3.15625 -1.40625 "/>
</g>
<g id="glyph-1-4-4843af19">
<path d="M 2.546875 0 L 2.546875 -0.3125 C 1.875 -0.3125 1.765625 -0.3125 1.765625 -0.765625 L 1.765625 -6.9375 L 0.328125 -6.828125 L 0.328125 -6.515625 C 1.03125 -6.515625 1.109375 -6.453125 1.109375 -5.953125 L 1.109375 -0.765625 C 1.109375 -0.3125 1 -0.3125 0.328125 -0.3125 L 0.328125 0 L 1.4375 -0.03125 Z M 2.546875 0 "/>
</g>
</g>
</defs>
<path fill-rule="nonzero" fill="rgb(100%, 100%, 100%)" fill-opacity="1" d="M 23 331 L 564 331 L 564 2 L 23 2 Z M 23 331 "/>
<g fill="rgb(0%, 0%, 0%)" fill-opacity="1">
<use xlink:href="#glyph-0-0-4843af19" x="37.310909" y="346.059999"/>
</g>
<g fill="rgb(0%, 0%, 0%)" fill-opacity="1">
<use xlink:href="#glyph-0-1-4843af19" x="45.090908" y="346.059999"/>
</g>
<g fill="rgb(0%, 0%, 0%)" fill-opacity="1">
<use xlink:href="#glyph-0-2-4843af19" x="50.090908" y="346.059999"/>
</g>
<g fill="rgb(0%, 0%, 0%)" fill-opacity="1">
<use xlink:href="#glyph-0-3-4843af19" x="52.870908" y="346.059999"/>
</g>
<g fill="rgb(0%, 0%, 0%)" fill-opacity="1">
<use xlink:href="#glyph-0-0-4843af19" x="160.265457" y="346.059999"/>
</g>
<g fill="rgb(0%, 0%, 0%)" fill-opacity="1">
<use xlink:href="#glyph-0-3-4843af19" x="168.045457" y="346.059999"/>
</g>
<g fill="rgb(0%, 0%, 0%)" fill-opacity="1">
<use xlink:href="#glyph-0-2-4843af19" x="173.045457" y="346.059999"/>
</g>
<g fill="rgb(0%, 0%, 0%)" fill-opacity="1">
<use xlink:href="#glyph-0-4-4843af19" x="175.825457" y="346.059999"/>
</g>
<g fill="rgb(0%, 0%, 0%)" fill-opacity="1">
<use xlink:href="#glyph-0-3-4843af19" x="287.110002" y="346.059999"/>
</g>
<g fill="rgb(0%, 0%, 0%)" fill-opacity="1">
<use xlink:href="#glyph-0-2-4843af19" x="292.110002" y="346.059999"/>
</g>
<g fill="rgb(0%, 0%, 0%)" fill-opacity="1">
<use xlink:href="#glyph-0-3-4843af19" x="294.890002" y="346.059999"/>
</g>
<g fill="rgb(0%, 0%, 0%)" fill-opacity="1">
<use xlink:href="#glyph-0-3-4843af19" x="410.064563" y="346.059999"/>
</g>
<g fill="rgb(0%, 0%, 0%)" fill-opacity="1">
<use xlink:href="#glyph-0-2-4843af19" x="415.064563" y="346.059999"/>
</g>
<g fill="rgb(0%, 0%, 0%)" fill-opacity="1">
<use xlink:href="#glyph-0-4-4843af19" x="417.844562" y="346.059999"/>
</g>
<g fill="rgb(0%, 0%, 0%)" fill-opacity="1">
<use xlink:href="#glyph-0-1-4843af19" x="533.019123" y="346.059999"/>
</g>
<g fill="rgb(0%, 0%, 0%)" fill-opacity="1">
<use xlink:href="#glyph-0-2-4843af19" x="538.019123" y="346.059999"/>
</g>
<g fill="rgb(0%, 0%, 0%)" fill-opacity="1">
<use xlink:href="#glyph-0-3-4843af19" x="540.799123" y="346.059999"/>
</g>
<g fill="rgb(0%, 0%, 0%)" fill-opacity="1">
<use xlink:href="#glyph-0-3-4843af19" x="1.22" y="319.105455"/>
</g>
<g fill="rgb(0%, 0%, 0%)" fill-opacity="1">
<use xlink:href="#glyph-0-2-4843af19" x="6.22" y="319.105455"/>
</g>
<g fill="rgb(0%, 0%, 0%)" fill-opacity="1">
<use xlink:href="#glyph-0-3-4843af19" x="9" y="319.105455"/>
</g>
<g fill="rgb(0%, 0%, 0%)" fill-opacity="1">
<use xlink:href="#glyph-0-3-4843af19" x="1.22" y="169.54211"/>
</g>
<g fill="rgb(0%, 0%, 0%)" fill-opacity="1">
<use xlink:href="#glyph-0-2-4843af19" x="6.22" y="169.54211"/>
</g>
<g fill="rgb(0%, 0%, 0%)" fill-opacity="1">
<use xlink:href="#glyph-0-4-4843af19" x="9" y="169.54211"/>
</g>
<g fill="rgb(0%, 0%, 0%)" fill-opacity="1">
<use xlink:href="#glyph-0-1-4843af19" x="1.22" y="19.97875"/>
</g>
<g fill="rgb(0%, 0%, 0%)" fill-opacity="1">
<use xlink:href="#glyph-0-2-4843af19" x="6.22" y="19.97875"/>
</g>
<g fill="rgb(0%, 0%, 0%)" fill-opacity="1">
<use xlink:href="#glyph-0-3-4843af19" x="9" y="19.97875"/>
</g>
<path fill="none" stroke-width="1.5" stroke-linecap="butt" stroke-linejoin="miter" stroke="rgb(0%, 44.705883%, 69.803923%)" stroke-opacity="1" stroke-miterlimit="2" d="M 47.589844 316.046875 L 50.128906 316.042969 L 52.667969 316.03125 L 67.539062 315.769531 L 82.40625 314.949219 L 89.324219 314.222656 L 96.238281 313.175781 L 100.875 312.246094 L 105.511719 311.097656 L 110.148438 309.703125 L 114.78125 308.019531 L 118.613281 306.386719 L 122.445312 304.511719 L 126.273438 302.378906 L 130.105469 299.960938 L 133.667969 297.445312 L 137.230469 294.648438 L 140.789062 291.558594 L 144.351562 288.164062 L 148.824219 283.445312 L 153.296875 278.199219 L 157.765625 272.410156 L 162.238281 266.0625 L 166.25 259.890625 L 170.261719 253.257812 L 174.273438 246.171875 L 178.28125 238.644531 L 182.875 229.496094 L 187.464844 219.808594 L 192.054688 209.621094 L 196.648438 198.976562 L 203.511719 182.339844 L 210.375 165.03125 L 219.152344 142.339844 L 227.933594 119.609375 L 231.9375 109.414062 L 235.945312 99.421875 L 239.949219 89.703125 L 243.957031 80.335938 L 248.515625 70.179688 L 253.078125 60.660156 L 255.355469 56.167969 L 257.636719 51.871094 L 259.914062 47.78125 L 262.195312 43.90625 L 265.808594 38.234375 L 269.425781 33.164062 L 273.039062 28.734375 L 276.652344 24.976562 L 278.898438 22.992188 L 281.144531 21.277344 L 283.390625 19.84375 L 285.632812 18.691406 L 287.878906 17.824219 L 290.125 17.246094 L 292.371094 16.957031 L 294.617188 16.953125 L 298.054688 17.515625 L 301.492188 18.75 L 304.933594 20.65625 L 308.371094 23.214844 L 310.796875 25.40625 L 313.21875 27.910156 L 315.644531 30.714844 L 318.070312 33.820312 L 320.492188 37.207031 L 322.917969 40.871094 L 325.339844 44.800781 L 327.765625 48.980469 L 331.390625 55.679688 L 335.011719 62.867188 L 338.636719 70.507812 L 342.257812 78.546875 L 346.378906 88.113281 L 350.5 98.054688 L 354.621094 108.300781 L 358.742188 118.769531 L 366.902344 139.882812 L 375.0625 161.027344 L 379.550781 172.480469 L 384.042969 183.707031 L 388.53125 194.640625 L 393.019531 205.214844 L 396.449219 213.015625 L 399.878906 220.550781 L 403.308594 227.808594 L 406.738281 234.765625 L 411.0625 243.101562 L 415.390625 250.925781 L 419.71875 258.226562 L 424.046875 264.996094 L 428.046875 270.785156 L 432.050781 276.125 L 436.054688 281.023438 L 440.054688 285.492188 L 444.183594 289.664062 L 448.3125 293.417969 L 452.4375 296.769531 L 456.566406 299.742188 L 460.75 302.394531 L 464.933594 304.710938 L 469.117188 306.714844 L 473.300781 308.441406 L 482.039062 311.246094 L 490.777344 313.175781 L 497.660156 314.21875 L 504.542969 314.941406 L 520.21875 315.792969 L 535.890625 316.039062 L 537.652344 316.042969 L 539.410156 316.046875 "/>
<path fill="none" stroke-width="0.7" stroke-linecap="butt" stroke-linejoin="miter" stroke="rgb(0%, 0%, 0%)" stroke-opacity="1" stroke-miterlimit="1.154701" d="M 47.589844 331.5 L 47.589844 335.5 "/>
<path fill="none" stroke-width="0.7" stroke-linecap="butt" stroke-linejoin="miter" stroke="rgb(0%, 0%, 0%)" stroke-opacity="1" stroke-miterlimit="1.154701" d="M 170.546875 331.5 L 170.546875 335.5 "/>
<path fill="none" stroke-width="0.7" stroke-linecap="butt" stroke-linejoin="miter" stroke="rgb(0%, 0%, 0%)" stroke-opacity="1" stroke-miterlimit="1.154701" d="M 293.5 331.5 L 293.5 335.5 "/>
<path fill="none" stroke-width="0.7" stroke-linecap="butt" stroke-linejoin="miter" stroke="rgb(0%, 0%, 0%)" stroke-opacity="1" stroke-miterlimit="1.154701" d="M 416.453125 331.5 L 416.453125 335.5 "/>
<path fill="none" stroke-width="0.7" stroke-linecap="butt" stroke-linejoin="miter" stroke="rgb(0%, 0%, 0%)" stroke-opacity="1" stroke-miterlimit="1.154701" d="M 539.410156 331.5 L 539.410156 335.5 "/>
<path fill="none" stroke-width="0.7" stroke-linecap="butt" stroke-linejoin="miter" stroke="rgb(0%, 0%, 0%)" stroke-opacity="1" stroke-miterlimit="1.154701" d="M 22.5 316.046875 L 18.5 316.046875 "/>
<path fill="none" stroke-width="0.7" stroke-linecap="butt" stroke-linejoin="miter" stroke="rgb(0%, 0%, 0%)" stroke-opacity="1" stroke-miterlimit="1.154701" d="M 22.5 166.480469 L 18.5 166.480469 "/>
<path fill="none" stroke-width="0.7" stroke-linecap="butt" stroke-linejoin="miter" stroke="rgb(0%, 0%, 0%)" stroke-opacity="1" stroke-miterlimit="1.154701" d="M 22.5 16.917969 L 18.5 16.917969 "/>
<path fill="none" stroke-width="1.5" stroke-linecap="butt" stroke-linejoin="miter" stroke="rgb(0%, 44.705883%, 69.803923%)" stroke-opacity="1" stroke-miterlimit="2" d="M 495.800781 24 L 515.800781 24 "/>
<g fill="rgb(0%, 0%, 0%)" fill-opacity="1">
<use xlink:href="#glyph-1-0-4843af19" x="520.800004" y="27.059988"/>
</g>
<g fill="rgb(0%, 0%, 0%)" fill-opacity="1">
<use xlink:href="#glyph-1-1-4843af19" x="528.300004" y="27.059988"/>
</g>
<g fill="rgb(0%, 0%, 0%)" fill-opacity="1">
<use xlink:href="#glyph-1-2-4843af19" x="533.860004" y="27.059988"/>
</g>
<g fill="rgb(0%, 0%, 0%)" fill-opacity="1">
<use xlink:href="#glyph-1-2-4843af19" x="537.750003" y="27.059988"/>
</g>
<g fill="rgb(0%, 0%, 0%)" fill-opacity="1">
<use xlink:href="#glyph-1-3-4843af19" x="541.640003" y="27.059988"/>
</g>
<g fill="rgb(0%, 0%, 0%)" fill-opacity="1">
<use xlink:href="#glyph-1-4-4843af19" x="546.640003" y="27.059988"/>
</g>
<g fill="rgb(0%, 0%, 0%)" fill-opacity="1">
<use xlink:href="#glyph-1-4-4843af19" x="549.420003" y="27.059988"/>
</g>
<path fill="none" stroke-width="1" stroke-linecap="butt" stroke-linejoin="miter" stroke="rgb(0%, 0%, 0%)" stroke-opacity="1" stroke-miterlimit="1.154701" d="M 22.5 331 L 564.5 331 "/>
<path fill="none" stroke-width="1" stroke-linecap="butt" stroke-linejoin="miter" stroke="rgb(0%, 0%, 0%)" stroke-opacity="1" stroke-miterlimit="1.154701" d="M 23 331.5 L 23 1.5 "/>
<path fill="none" stroke-width="1" stroke-linecap="butt" stroke-linejoin="miter" stroke="rgb(0%, 0%, 0%)" stroke-opacity="1" stroke-miterlimit="1.154701" d="M 22.5 2 L 564.5 2 "/>
<path fill="none" stroke-width="1" stroke-linecap="butt" stroke-linejoin="miter" stroke="rgb(0%, 0%, 0%)" stroke-opacity="1" stroke-miterlimit="1.154701" d="M 564 331.5 L 564 1.5 "/>
</svg>
